<mxfile host="Electron" agent="Mozilla/5.0 (Macintosh; Intel Mac OS X 10_15_7) AppleWebKit/537.36 (KHTML, like Gecko) draw.io/28.0.4 Chrome/138.0.7204.97 Electron/37.2.1 Safari/537.36" version="28.0.4" pages="2">
  <diagram name="Basic Blocks" id="RtQjKDZBHdHRPLhgOpHA">
    <mxGraphModel dx="392" dy="403" grid="1" gridSize="10" guides="1" tooltips="1" connect="1" arrows="1" fold="1" page="1" pageScale="1" pageWidth="850" pageHeight="1100" math="1" shadow="0">
      <root>
        <mxCell id="0" />
        <mxCell id="1" parent="0" />
        <mxCell id="o_PxzSFl6eTJoVfVxlqj-2" value="$$z^{-1}$$" style="whiteSpace=wrap;html=1;aspect=fixed;fillColor=none;" vertex="1" parent="1">
          <mxGeometry x="160" y="160" width="40" height="40" as="geometry" />
        </mxCell>
        <mxCell id="tTn-Mmo1as1Acu3Sutl--5" value="" style="group" vertex="1" connectable="0" parent="1">
          <mxGeometry x="250" y="170" width="20" height="20" as="geometry" />
        </mxCell>
        <mxCell id="tTn-Mmo1as1Acu3Sutl--1" value="" style="ellipse;whiteSpace=wrap;html=1;aspect=fixed;fillColor=none;" vertex="1" parent="tTn-Mmo1as1Acu3Sutl--5">
          <mxGeometry width="20" height="20" as="geometry" />
        </mxCell>
        <mxCell id="tTn-Mmo1as1Acu3Sutl--3" value="" style="endArrow=none;html=1;rounded=0;entryX=1;entryY=0;entryDx=0;entryDy=0;exitX=0;exitY=1;exitDx=0;exitDy=0;" edge="1" parent="tTn-Mmo1as1Acu3Sutl--5" source="tTn-Mmo1as1Acu3Sutl--1" target="tTn-Mmo1as1Acu3Sutl--1">
          <mxGeometry width="50" height="50" relative="1" as="geometry">
            <mxPoint x="-10" y="50" as="sourcePoint" />
            <mxPoint x="40" as="targetPoint" />
          </mxGeometry>
        </mxCell>
        <mxCell id="tTn-Mmo1as1Acu3Sutl--4" value="" style="endArrow=none;html=1;rounded=0;entryX=0;entryY=0;entryDx=0;entryDy=0;exitX=1;exitY=1;exitDx=0;exitDy=0;" edge="1" parent="tTn-Mmo1as1Acu3Sutl--5" source="tTn-Mmo1as1Acu3Sutl--1" target="tTn-Mmo1as1Acu3Sutl--1">
          <mxGeometry width="50" height="50" relative="1" as="geometry">
            <mxPoint x="-10" y="50" as="sourcePoint" />
            <mxPoint x="40" as="targetPoint" />
          </mxGeometry>
        </mxCell>
        <mxCell id="tTn-Mmo1as1Acu3Sutl--11" value="" style="group" vertex="1" connectable="0" parent="1">
          <mxGeometry x="250" y="200" width="20" height="20" as="geometry" />
        </mxCell>
        <mxCell id="tTn-Mmo1as1Acu3Sutl--8" value="" style="ellipse;whiteSpace=wrap;html=1;aspect=fixed;fillColor=none;" vertex="1" parent="tTn-Mmo1as1Acu3Sutl--11">
          <mxGeometry width="20" height="20" as="geometry" />
        </mxCell>
        <mxCell id="tTn-Mmo1as1Acu3Sutl--9" value="" style="endArrow=none;html=1;rounded=0;" edge="1" parent="tTn-Mmo1as1Acu3Sutl--11">
          <mxGeometry width="50" height="50" relative="1" as="geometry">
            <mxPoint x="9.920000000000016" y="15" as="sourcePoint" />
            <mxPoint x="9.920000000000016" y="5" as="targetPoint" />
          </mxGeometry>
        </mxCell>
        <mxCell id="tTn-Mmo1as1Acu3Sutl--10" value="" style="endArrow=none;html=1;rounded=0;" edge="1" parent="tTn-Mmo1as1Acu3Sutl--11">
          <mxGeometry width="50" height="50" relative="1" as="geometry">
            <mxPoint x="5" y="9.930000000000007" as="sourcePoint" />
            <mxPoint x="15" y="9.930000000000007" as="targetPoint" />
          </mxGeometry>
        </mxCell>
        <mxCell id="I16xuDJSjkQ4nJQBgoVh-1" value="$$\uparrow N$$" style="whiteSpace=wrap;html=1;aspect=fixed;fillColor=none;" vertex="1" parent="1">
          <mxGeometry x="160" y="280" width="40" height="40" as="geometry" />
        </mxCell>
        <mxCell id="I16xuDJSjkQ4nJQBgoVh-2" value="$$\downarrow M$$" style="whiteSpace=wrap;html=1;aspect=fixed;fillColor=none;" vertex="1" parent="1">
          <mxGeometry x="240" y="280" width="40" height="40" as="geometry" />
        </mxCell>
        <mxCell id="213-uUIDgGUi1IqIsiuL-1" value="$$x[n]$$" style="text;html=1;align=center;verticalAlign=middle;whiteSpace=wrap;rounded=0;fontFamily=Helvetica;fontSize=11;fontColor=default;labelBackgroundColor=none;resizable=0;fillColor=none;" vertex="1" parent="1">
          <mxGeometry x="320" y="220" width="60" height="30" as="geometry" />
        </mxCell>
      </root>
    </mxGraphModel>
  </diagram>
  <diagram id="sKYsUIfhZKBcxqhQUIVf" name="Multirate Filters">
    <mxGraphModel dx="1299" dy="960" grid="1" gridSize="10" guides="1" tooltips="1" connect="1" arrows="1" fold="1" page="1" pageScale="1" pageWidth="850" pageHeight="1100" math="1" shadow="0">
      <root>
        <mxCell id="0" />
        <mxCell id="1" parent="0" />
        <mxCell id="yFcrXBDnqZHCQ9-agBT8-109" value="" style="rounded=1;whiteSpace=wrap;html=1;sketch=0;fillStyle=solid;pointerEvents=1;strokeColor=none;strokeWidth=0;align=center;verticalAlign=middle;fontFamily=Helvetica;fontSize=11;labelBackgroundColor=default;resizable=1;fillColor=#d5e8d4;movable=1;rotatable=1;deletable=1;editable=1;locked=0;connectable=1;arcSize=5;" vertex="1" parent="1">
          <mxGeometry x="240" y="690" width="360" height="500" as="geometry" />
        </mxCell>
        <mxCell id="yFcrXBDnqZHCQ9-agBT8-107" value="" style="rounded=1;whiteSpace=wrap;html=1;sketch=0;fillStyle=solid;pointerEvents=1;strokeColor=none;strokeWidth=0;align=center;verticalAlign=middle;fontFamily=Helvetica;fontSize=11;labelBackgroundColor=default;resizable=1;fillColor=#dae8fc;movable=1;rotatable=1;deletable=1;editable=1;locked=0;connectable=1;" vertex="1" parent="1">
          <mxGeometry x="110" y="690" width="130" height="500" as="geometry" />
        </mxCell>
        <mxCell id="yFcrXBDnqZHCQ9-agBT8-1" value="" style="rounded=1;whiteSpace=wrap;html=1;sketch=0;fillStyle=solid;pointerEvents=1;strokeColor=none;strokeWidth=0;align=center;verticalAlign=middle;fontFamily=Helvetica;fontSize=11;labelBackgroundColor=default;resizable=1;fillColor=#d5e8d4;movable=1;rotatable=1;deletable=1;editable=1;locked=0;connectable=1;" vertex="1" parent="1">
          <mxGeometry x="1060" y="440" width="110" height="160" as="geometry" />
        </mxCell>
        <mxCell id="mwAAPyC5iPkNbUFS9GQT-3" value="" style="rounded=1;whiteSpace=wrap;html=1;sketch=0;fillStyle=solid;pointerEvents=1;strokeColor=none;strokeWidth=0;align=center;verticalAlign=middle;fontFamily=Helvetica;fontSize=11;labelBackgroundColor=default;resizable=1;fillColor=#dae8fc;movable=1;rotatable=1;deletable=1;editable=1;locked=0;connectable=1;" vertex="1" parent="1">
          <mxGeometry x="90" y="440" width="970" height="160" as="geometry" />
        </mxCell>
        <mxCell id="5ywa5R0RPWsdE05pwZt0-37" value="$$x[n]$$" style="text;html=1;align=center;verticalAlign=middle;whiteSpace=wrap;rounded=0;fontFamily=Helvetica;fontSize=11;fontColor=default;labelBackgroundColor=none;resizable=0;fillColor=none;" vertex="1" parent="1">
          <mxGeometry x="50" y="190" width="60" height="30" as="geometry" />
        </mxCell>
        <mxCell id="5ywa5R0RPWsdE05pwZt0-12" style="edgeStyle=orthogonalEdgeStyle;rounded=0;orthogonalLoop=1;jettySize=auto;html=1;exitX=1;exitY=0.5;exitDx=0;exitDy=0;entryX=0;entryY=0.5;entryDx=0;entryDy=0;endArrow=blockThin;endFill=1;" edge="1" parent="1" source="5ywa5R0RPWsdE05pwZt0-1" target="5ywa5R0RPWsdE05pwZt0-10">
          <mxGeometry relative="1" as="geometry" />
        </mxCell>
        <mxCell id="5ywa5R0RPWsdE05pwZt0-1" value="$$z^{-1}$$" style="whiteSpace=wrap;html=1;aspect=fixed;fillColor=none;" vertex="1" parent="1">
          <mxGeometry x="160" y="200" width="40" height="40" as="geometry" />
        </mxCell>
        <mxCell id="5ywa5R0RPWsdE05pwZt0-6" value="" style="group" vertex="1" connectable="0" parent="1">
          <mxGeometry x="230" y="290" width="20" height="20" as="geometry" />
        </mxCell>
        <mxCell id="5ywa5R0RPWsdE05pwZt0-7" value="" style="ellipse;whiteSpace=wrap;html=1;aspect=fixed;fillColor=none;" vertex="1" parent="5ywa5R0RPWsdE05pwZt0-6">
          <mxGeometry width="20" height="20" as="geometry" />
        </mxCell>
        <mxCell id="5ywa5R0RPWsdE05pwZt0-8" value="" style="endArrow=none;html=1;rounded=0;" edge="1" parent="5ywa5R0RPWsdE05pwZt0-6">
          <mxGeometry width="50" height="50" relative="1" as="geometry">
            <mxPoint x="9.920000000000016" y="15" as="sourcePoint" />
            <mxPoint x="9.920000000000016" y="5" as="targetPoint" />
          </mxGeometry>
        </mxCell>
        <mxCell id="5ywa5R0RPWsdE05pwZt0-9" value="" style="endArrow=none;html=1;rounded=0;" edge="1" parent="5ywa5R0RPWsdE05pwZt0-6">
          <mxGeometry width="50" height="50" relative="1" as="geometry">
            <mxPoint x="5" y="9.930000000000007" as="sourcePoint" />
            <mxPoint x="15" y="9.930000000000007" as="targetPoint" />
          </mxGeometry>
        </mxCell>
        <mxCell id="j_e9VoBYmgcrXOVCCWzt-20" style="edgeStyle=orthogonalEdgeStyle;shape=connector;rounded=0;orthogonalLoop=1;jettySize=auto;html=1;exitX=1;exitY=0.5;exitDx=0;exitDy=0;entryX=0;entryY=0.5;entryDx=0;entryDy=0;strokeColor=default;align=center;verticalAlign=middle;fontFamily=Helvetica;fontSize=11;fontColor=default;labelBackgroundColor=default;resizable=0;endArrow=blockThin;endFill=1;" edge="1" parent="1" source="5ywa5R0RPWsdE05pwZt0-10" target="j_e9VoBYmgcrXOVCCWzt-2">
          <mxGeometry relative="1" as="geometry" />
        </mxCell>
        <mxCell id="5ywa5R0RPWsdE05pwZt0-10" value="$$z^{-1}$$" style="whiteSpace=wrap;html=1;aspect=fixed;fillColor=none;" vertex="1" parent="1">
          <mxGeometry x="280" y="200" width="40" height="40" as="geometry" />
        </mxCell>
        <mxCell id="5ywa5R0RPWsdE05pwZt0-16" value="" style="shape=waypoint;sketch=0;fillStyle=solid;size=6;pointerEvents=1;points=[];fillColor=none;resizable=0;rotatable=0;perimeter=centerPerimeter;snapToPoint=1;fontFamily=Helvetica;fontSize=11;fontColor=default;labelBackgroundColor=default;strokeWidth=0;" vertex="1" parent="1">
          <mxGeometry x="230" y="210" width="20" height="20" as="geometry" />
        </mxCell>
        <mxCell id="5ywa5R0RPWsdE05pwZt0-15" style="edgeStyle=orthogonalEdgeStyle;shape=connector;rounded=0;orthogonalLoop=1;jettySize=auto;html=1;exitX=0.5;exitY=0;exitDx=0;exitDy=0;strokeColor=default;align=center;verticalAlign=middle;fontFamily=Helvetica;fontSize=11;fontColor=default;labelBackgroundColor=default;endArrow=none;endFill=0;startArrow=blockThin;startFill=1;flowAnimation=0;shadow=0;jumpStyle=none;" edge="1" parent="1" source="5ywa5R0RPWsdE05pwZt0-3" target="5ywa5R0RPWsdE05pwZt0-16">
          <mxGeometry relative="1" as="geometry">
            <mxPoint x="260" y="230" as="targetPoint" />
          </mxGeometry>
        </mxCell>
        <mxCell id="5ywa5R0RPWsdE05pwZt0-18" style="edgeStyle=orthogonalEdgeStyle;shape=connector;rounded=0;orthogonalLoop=1;jettySize=auto;html=1;exitX=0.5;exitY=1;exitDx=0;exitDy=0;entryX=0.5;entryY=0;entryDx=0;entryDy=0;strokeColor=default;align=center;verticalAlign=middle;fontFamily=Helvetica;fontSize=11;fontColor=default;labelBackgroundColor=default;resizable=0;endArrow=blockThin;endFill=1;" edge="1" parent="1" source="5ywa5R0RPWsdE05pwZt0-3" target="5ywa5R0RPWsdE05pwZt0-7">
          <mxGeometry relative="1" as="geometry" />
        </mxCell>
        <mxCell id="5ywa5R0RPWsdE05pwZt0-3" value="" style="ellipse;whiteSpace=wrap;html=1;aspect=fixed;fillColor=none;" vertex="1" parent="1">
          <mxGeometry x="230" y="250" width="20" height="20" as="geometry" />
        </mxCell>
        <mxCell id="5ywa5R0RPWsdE05pwZt0-4" value="" style="endArrow=none;html=1;rounded=0;entryX=1;entryY=0;entryDx=0;entryDy=0;exitX=0;exitY=1;exitDx=0;exitDy=0;" edge="1" parent="1" source="5ywa5R0RPWsdE05pwZt0-3" target="5ywa5R0RPWsdE05pwZt0-3">
          <mxGeometry width="50" height="50" relative="1" as="geometry">
            <mxPoint x="220" y="300" as="sourcePoint" />
            <mxPoint x="270" y="250" as="targetPoint" />
          </mxGeometry>
        </mxCell>
        <mxCell id="5ywa5R0RPWsdE05pwZt0-5" value="" style="endArrow=none;html=1;rounded=0;entryX=0;entryY=0;entryDx=0;entryDy=0;exitX=1;exitY=1;exitDx=0;exitDy=0;" edge="1" parent="1" source="5ywa5R0RPWsdE05pwZt0-3" target="5ywa5R0RPWsdE05pwZt0-3">
          <mxGeometry width="50" height="50" relative="1" as="geometry">
            <mxPoint x="220" y="300" as="sourcePoint" />
            <mxPoint x="270" y="250" as="targetPoint" />
          </mxGeometry>
        </mxCell>
        <mxCell id="5ywa5R0RPWsdE05pwZt0-19" value="$$h[1]$$" style="text;html=1;align=center;verticalAlign=middle;whiteSpace=wrap;rounded=0;fontFamily=Helvetica;fontSize=11;fontColor=default;labelBackgroundColor=none;resizable=0;fillColor=none;" vertex="1" parent="1">
          <mxGeometry x="240" y="245" width="60" height="30" as="geometry" />
        </mxCell>
        <mxCell id="5ywa5R0RPWsdE05pwZt0-31" style="edgeStyle=orthogonalEdgeStyle;shape=connector;rounded=0;orthogonalLoop=1;jettySize=auto;html=1;exitX=0.5;exitY=1;exitDx=0;exitDy=0;entryX=0;entryY=0.5;entryDx=0;entryDy=0;strokeColor=default;align=center;verticalAlign=middle;fontFamily=Helvetica;fontSize=11;fontColor=default;labelBackgroundColor=default;resizable=0;endArrow=blockThin;endFill=1;" edge="1" parent="1" source="5ywa5R0RPWsdE05pwZt0-23" target="5ywa5R0RPWsdE05pwZt0-7">
          <mxGeometry relative="1" as="geometry" />
        </mxCell>
        <mxCell id="5ywa5R0RPWsdE05pwZt0-23" value="" style="ellipse;whiteSpace=wrap;html=1;aspect=fixed;fillColor=none;" vertex="1" parent="1">
          <mxGeometry x="110" y="250" width="20" height="20" as="geometry" />
        </mxCell>
        <mxCell id="5ywa5R0RPWsdE05pwZt0-24" value="" style="endArrow=none;html=1;rounded=0;entryX=1;entryY=0;entryDx=0;entryDy=0;exitX=0;exitY=1;exitDx=0;exitDy=0;" edge="1" parent="1" source="5ywa5R0RPWsdE05pwZt0-23" target="5ywa5R0RPWsdE05pwZt0-23">
          <mxGeometry width="50" height="50" relative="1" as="geometry">
            <mxPoint x="100" y="300" as="sourcePoint" />
            <mxPoint x="150" y="250" as="targetPoint" />
          </mxGeometry>
        </mxCell>
        <mxCell id="5ywa5R0RPWsdE05pwZt0-25" value="" style="endArrow=none;html=1;rounded=0;entryX=0;entryY=0;entryDx=0;entryDy=0;exitX=1;exitY=1;exitDx=0;exitDy=0;" edge="1" parent="1" source="5ywa5R0RPWsdE05pwZt0-23" target="5ywa5R0RPWsdE05pwZt0-23">
          <mxGeometry width="50" height="50" relative="1" as="geometry">
            <mxPoint x="100" y="300" as="sourcePoint" />
            <mxPoint x="150" y="250" as="targetPoint" />
          </mxGeometry>
        </mxCell>
        <mxCell id="5ywa5R0RPWsdE05pwZt0-26" value="$$h[0]$$" style="text;html=1;align=center;verticalAlign=middle;whiteSpace=wrap;rounded=0;fontFamily=Helvetica;fontSize=11;fontColor=default;labelBackgroundColor=none;resizable=0;fillColor=none;" vertex="1" parent="1">
          <mxGeometry x="120" y="245" width="60" height="30" as="geometry" />
        </mxCell>
        <mxCell id="5ywa5R0RPWsdE05pwZt0-28" style="edgeStyle=orthogonalEdgeStyle;shape=connector;rounded=0;orthogonalLoop=1;jettySize=auto;html=1;entryX=0;entryY=0.5;entryDx=0;entryDy=0;strokeColor=default;align=center;verticalAlign=middle;fontFamily=Helvetica;fontSize=11;fontColor=default;labelBackgroundColor=default;resizable=0;endArrow=blockThin;endFill=1;" edge="1" parent="1" source="5ywa5R0RPWsdE05pwZt0-35" target="5ywa5R0RPWsdE05pwZt0-1">
          <mxGeometry relative="1" as="geometry" />
        </mxCell>
        <mxCell id="5ywa5R0RPWsdE05pwZt0-30" style="edgeStyle=orthogonalEdgeStyle;shape=connector;rounded=0;orthogonalLoop=1;jettySize=auto;html=1;entryX=0.5;entryY=0;entryDx=0;entryDy=0;strokeColor=default;align=center;verticalAlign=middle;fontFamily=Helvetica;fontSize=11;fontColor=default;labelBackgroundColor=default;resizable=0;endArrow=blockThin;endFill=1;" edge="1" parent="1" source="5ywa5R0RPWsdE05pwZt0-27" target="5ywa5R0RPWsdE05pwZt0-23">
          <mxGeometry relative="1" as="geometry" />
        </mxCell>
        <mxCell id="5ywa5R0RPWsdE05pwZt0-27" value="" style="shape=waypoint;sketch=0;fillStyle=solid;size=6;pointerEvents=1;points=[];fillColor=none;resizable=0;rotatable=0;perimeter=centerPerimeter;snapToPoint=1;strokeColor=default;strokeWidth=0;align=center;verticalAlign=middle;fontFamily=Helvetica;fontSize=11;fontColor=default;labelBackgroundColor=default;" vertex="1" parent="1">
          <mxGeometry x="110" y="210" width="20" height="20" as="geometry" />
        </mxCell>
        <mxCell id="5ywa5R0RPWsdE05pwZt0-35" value="" style="shape=waypoint;sketch=0;fillStyle=solid;size=6;pointerEvents=1;points=[];fillColor=none;resizable=0;rotatable=0;perimeter=centerPerimeter;snapToPoint=1;strokeColor=default;strokeWidth=0;align=center;verticalAlign=middle;fontFamily=Helvetica;fontSize=11;fontColor=default;labelBackgroundColor=default;" vertex="1" parent="1">
          <mxGeometry x="70" y="210" width="20" height="20" as="geometry" />
        </mxCell>
        <mxCell id="j_e9VoBYmgcrXOVCCWzt-1" style="edgeStyle=orthogonalEdgeStyle;rounded=0;orthogonalLoop=1;jettySize=auto;html=1;exitX=1;exitY=0.5;exitDx=0;exitDy=0;entryX=0;entryY=0.5;entryDx=0;entryDy=0;endArrow=blockThin;endFill=1;" edge="1" parent="1" source="j_e9VoBYmgcrXOVCCWzt-2" target="j_e9VoBYmgcrXOVCCWzt-7">
          <mxGeometry relative="1" as="geometry" />
        </mxCell>
        <mxCell id="j_e9VoBYmgcrXOVCCWzt-2" value="$$z^{-1}$$" style="whiteSpace=wrap;html=1;aspect=fixed;fillColor=none;" vertex="1" parent="1">
          <mxGeometry x="400" y="200" width="40" height="40" as="geometry" />
        </mxCell>
        <mxCell id="j_e9VoBYmgcrXOVCCWzt-3" value="" style="group" vertex="1" connectable="0" parent="1">
          <mxGeometry x="470" y="290" width="20" height="20" as="geometry" />
        </mxCell>
        <mxCell id="j_e9VoBYmgcrXOVCCWzt-4" value="" style="ellipse;whiteSpace=wrap;html=1;aspect=fixed;fillColor=none;" vertex="1" parent="j_e9VoBYmgcrXOVCCWzt-3">
          <mxGeometry width="20" height="20" as="geometry" />
        </mxCell>
        <mxCell id="j_e9VoBYmgcrXOVCCWzt-5" value="" style="endArrow=none;html=1;rounded=0;" edge="1" parent="j_e9VoBYmgcrXOVCCWzt-3">
          <mxGeometry width="50" height="50" relative="1" as="geometry">
            <mxPoint x="9.920000000000016" y="15" as="sourcePoint" />
            <mxPoint x="9.920000000000016" y="5" as="targetPoint" />
          </mxGeometry>
        </mxCell>
        <mxCell id="j_e9VoBYmgcrXOVCCWzt-6" value="" style="endArrow=none;html=1;rounded=0;" edge="1" parent="j_e9VoBYmgcrXOVCCWzt-3">
          <mxGeometry width="50" height="50" relative="1" as="geometry">
            <mxPoint x="5" y="9.930000000000007" as="sourcePoint" />
            <mxPoint x="15" y="9.930000000000007" as="targetPoint" />
          </mxGeometry>
        </mxCell>
        <mxCell id="j_e9VoBYmgcrXOVCCWzt-70" style="edgeStyle=orthogonalEdgeStyle;shape=connector;rounded=0;orthogonalLoop=1;jettySize=auto;html=1;exitX=1;exitY=0.5;exitDx=0;exitDy=0;entryX=0;entryY=0.5;entryDx=0;entryDy=0;strokeColor=default;align=center;verticalAlign=middle;fontFamily=Helvetica;fontSize=11;fontColor=default;labelBackgroundColor=default;resizable=0;endArrow=blockThin;endFill=1;" edge="1" parent="1" source="j_e9VoBYmgcrXOVCCWzt-7" target="j_e9VoBYmgcrXOVCCWzt-35">
          <mxGeometry relative="1" as="geometry" />
        </mxCell>
        <mxCell id="j_e9VoBYmgcrXOVCCWzt-7" value="$$z^{-1}$$" style="whiteSpace=wrap;html=1;aspect=fixed;fillColor=none;" vertex="1" parent="1">
          <mxGeometry x="520" y="200" width="40" height="40" as="geometry" />
        </mxCell>
        <mxCell id="j_e9VoBYmgcrXOVCCWzt-8" value="" style="shape=waypoint;sketch=0;fillStyle=solid;size=6;pointerEvents=1;points=[];fillColor=none;resizable=0;rotatable=0;perimeter=centerPerimeter;snapToPoint=1;fontFamily=Helvetica;fontSize=11;fontColor=default;labelBackgroundColor=default;strokeWidth=0;" vertex="1" parent="1">
          <mxGeometry x="470" y="210" width="20" height="20" as="geometry" />
        </mxCell>
        <mxCell id="j_e9VoBYmgcrXOVCCWzt-9" style="edgeStyle=orthogonalEdgeStyle;shape=connector;rounded=0;orthogonalLoop=1;jettySize=auto;html=1;exitX=0.5;exitY=0;exitDx=0;exitDy=0;strokeColor=default;align=center;verticalAlign=middle;fontFamily=Helvetica;fontSize=11;fontColor=default;labelBackgroundColor=default;endArrow=none;endFill=0;startArrow=blockThin;startFill=1;flowAnimation=0;shadow=0;jumpStyle=none;" edge="1" parent="1" source="j_e9VoBYmgcrXOVCCWzt-11" target="j_e9VoBYmgcrXOVCCWzt-8">
          <mxGeometry relative="1" as="geometry">
            <mxPoint x="500" y="230" as="targetPoint" />
          </mxGeometry>
        </mxCell>
        <mxCell id="j_e9VoBYmgcrXOVCCWzt-10" style="edgeStyle=orthogonalEdgeStyle;shape=connector;rounded=0;orthogonalLoop=1;jettySize=auto;html=1;exitX=0.5;exitY=1;exitDx=0;exitDy=0;entryX=0.5;entryY=0;entryDx=0;entryDy=0;strokeColor=default;align=center;verticalAlign=middle;fontFamily=Helvetica;fontSize=11;fontColor=default;labelBackgroundColor=default;resizable=0;endArrow=blockThin;endFill=1;" edge="1" parent="1" source="j_e9VoBYmgcrXOVCCWzt-11" target="j_e9VoBYmgcrXOVCCWzt-4">
          <mxGeometry relative="1" as="geometry" />
        </mxCell>
        <mxCell id="j_e9VoBYmgcrXOVCCWzt-11" value="" style="ellipse;whiteSpace=wrap;html=1;aspect=fixed;fillColor=none;" vertex="1" parent="1">
          <mxGeometry x="470" y="250" width="20" height="20" as="geometry" />
        </mxCell>
        <mxCell id="j_e9VoBYmgcrXOVCCWzt-12" value="" style="endArrow=none;html=1;rounded=0;entryX=1;entryY=0;entryDx=0;entryDy=0;exitX=0;exitY=1;exitDx=0;exitDy=0;" edge="1" parent="1" source="j_e9VoBYmgcrXOVCCWzt-11" target="j_e9VoBYmgcrXOVCCWzt-11">
          <mxGeometry width="50" height="50" relative="1" as="geometry">
            <mxPoint x="460" y="300" as="sourcePoint" />
            <mxPoint x="510" y="250" as="targetPoint" />
          </mxGeometry>
        </mxCell>
        <mxCell id="j_e9VoBYmgcrXOVCCWzt-13" value="" style="endArrow=none;html=1;rounded=0;entryX=0;entryY=0;entryDx=0;entryDy=0;exitX=1;exitY=1;exitDx=0;exitDy=0;" edge="1" parent="1" source="j_e9VoBYmgcrXOVCCWzt-11" target="j_e9VoBYmgcrXOVCCWzt-11">
          <mxGeometry width="50" height="50" relative="1" as="geometry">
            <mxPoint x="460" y="300" as="sourcePoint" />
            <mxPoint x="510" y="250" as="targetPoint" />
          </mxGeometry>
        </mxCell>
        <mxCell id="j_e9VoBYmgcrXOVCCWzt-14" value="$$h[3]$$" style="text;html=1;align=center;verticalAlign=middle;whiteSpace=wrap;rounded=0;fontFamily=Helvetica;fontSize=11;fontColor=default;labelBackgroundColor=none;resizable=0;fillColor=none;" vertex="1" parent="1">
          <mxGeometry x="480" y="245" width="60" height="30" as="geometry" />
        </mxCell>
        <mxCell id="j_e9VoBYmgcrXOVCCWzt-27" style="edgeStyle=orthogonalEdgeStyle;shape=connector;rounded=0;orthogonalLoop=1;jettySize=auto;html=1;exitX=0.5;exitY=1;exitDx=0;exitDy=0;entryX=0.5;entryY=0;entryDx=0;entryDy=0;strokeColor=default;align=center;verticalAlign=middle;fontFamily=Helvetica;fontSize=11;fontColor=default;labelBackgroundColor=default;resizable=0;endArrow=blockThin;endFill=1;" edge="1" parent="1" source="j_e9VoBYmgcrXOVCCWzt-16" target="j_e9VoBYmgcrXOVCCWzt-22">
          <mxGeometry relative="1" as="geometry" />
        </mxCell>
        <mxCell id="j_e9VoBYmgcrXOVCCWzt-16" value="" style="ellipse;whiteSpace=wrap;html=1;aspect=fixed;fillColor=none;" vertex="1" parent="1">
          <mxGeometry x="350" y="250" width="20" height="20" as="geometry" />
        </mxCell>
        <mxCell id="j_e9VoBYmgcrXOVCCWzt-17" value="" style="endArrow=none;html=1;rounded=0;entryX=1;entryY=0;entryDx=0;entryDy=0;exitX=0;exitY=1;exitDx=0;exitDy=0;" edge="1" parent="1" source="j_e9VoBYmgcrXOVCCWzt-16" target="j_e9VoBYmgcrXOVCCWzt-16">
          <mxGeometry width="50" height="50" relative="1" as="geometry">
            <mxPoint x="340" y="300" as="sourcePoint" />
            <mxPoint x="390" y="250" as="targetPoint" />
          </mxGeometry>
        </mxCell>
        <mxCell id="j_e9VoBYmgcrXOVCCWzt-18" value="" style="endArrow=none;html=1;rounded=0;entryX=0;entryY=0;entryDx=0;entryDy=0;exitX=1;exitY=1;exitDx=0;exitDy=0;" edge="1" parent="1" source="j_e9VoBYmgcrXOVCCWzt-16" target="j_e9VoBYmgcrXOVCCWzt-16">
          <mxGeometry width="50" height="50" relative="1" as="geometry">
            <mxPoint x="340" y="300" as="sourcePoint" />
            <mxPoint x="390" y="250" as="targetPoint" />
          </mxGeometry>
        </mxCell>
        <mxCell id="j_e9VoBYmgcrXOVCCWzt-19" value="$$h[2]$$" style="text;html=1;align=center;verticalAlign=middle;whiteSpace=wrap;rounded=0;fontFamily=Helvetica;fontSize=11;fontColor=default;labelBackgroundColor=none;resizable=0;fillColor=none;" vertex="1" parent="1">
          <mxGeometry x="360" y="245" width="60" height="30" as="geometry" />
        </mxCell>
        <mxCell id="j_e9VoBYmgcrXOVCCWzt-21" value="" style="group" vertex="1" connectable="0" parent="1">
          <mxGeometry x="350" y="290" width="20" height="20" as="geometry" />
        </mxCell>
        <mxCell id="j_e9VoBYmgcrXOVCCWzt-22" value="" style="ellipse;whiteSpace=wrap;html=1;aspect=fixed;fillColor=none;" vertex="1" parent="j_e9VoBYmgcrXOVCCWzt-21">
          <mxGeometry width="20" height="20" as="geometry" />
        </mxCell>
        <mxCell id="j_e9VoBYmgcrXOVCCWzt-23" value="" style="endArrow=none;html=1;rounded=0;" edge="1" parent="j_e9VoBYmgcrXOVCCWzt-21">
          <mxGeometry width="50" height="50" relative="1" as="geometry">
            <mxPoint x="9.920000000000016" y="15" as="sourcePoint" />
            <mxPoint x="9.920000000000016" y="5" as="targetPoint" />
          </mxGeometry>
        </mxCell>
        <mxCell id="j_e9VoBYmgcrXOVCCWzt-24" value="" style="endArrow=none;html=1;rounded=0;" edge="1" parent="j_e9VoBYmgcrXOVCCWzt-21">
          <mxGeometry width="50" height="50" relative="1" as="geometry">
            <mxPoint x="5" y="9.930000000000007" as="sourcePoint" />
            <mxPoint x="15" y="9.930000000000007" as="targetPoint" />
          </mxGeometry>
        </mxCell>
        <mxCell id="j_e9VoBYmgcrXOVCCWzt-25" style="edgeStyle=orthogonalEdgeStyle;shape=connector;rounded=0;orthogonalLoop=1;jettySize=auto;html=1;exitX=1;exitY=0.5;exitDx=0;exitDy=0;entryX=0;entryY=0.5;entryDx=0;entryDy=0;strokeColor=default;align=center;verticalAlign=middle;fontFamily=Helvetica;fontSize=11;fontColor=default;labelBackgroundColor=default;resizable=0;endArrow=blockThin;endFill=1;" edge="1" parent="1" source="5ywa5R0RPWsdE05pwZt0-7" target="j_e9VoBYmgcrXOVCCWzt-22">
          <mxGeometry relative="1" as="geometry" />
        </mxCell>
        <mxCell id="j_e9VoBYmgcrXOVCCWzt-26" style="edgeStyle=orthogonalEdgeStyle;shape=connector;rounded=0;orthogonalLoop=1;jettySize=auto;html=1;exitX=1;exitY=0.5;exitDx=0;exitDy=0;entryX=0;entryY=0.5;entryDx=0;entryDy=0;strokeColor=default;align=center;verticalAlign=middle;fontFamily=Helvetica;fontSize=11;fontColor=default;labelBackgroundColor=default;resizable=0;endArrow=blockThin;endFill=1;" edge="1" parent="1" source="j_e9VoBYmgcrXOVCCWzt-22" target="j_e9VoBYmgcrXOVCCWzt-4">
          <mxGeometry relative="1" as="geometry" />
        </mxCell>
        <mxCell id="j_e9VoBYmgcrXOVCCWzt-29" style="edgeStyle=orthogonalEdgeStyle;shape=connector;rounded=0;orthogonalLoop=1;jettySize=auto;html=1;entryX=0.5;entryY=0;entryDx=0;entryDy=0;strokeColor=default;align=center;verticalAlign=middle;fontFamily=Helvetica;fontSize=11;fontColor=default;labelBackgroundColor=default;resizable=0;endArrow=blockThin;endFill=1;" edge="1" parent="1" source="j_e9VoBYmgcrXOVCCWzt-28" target="j_e9VoBYmgcrXOVCCWzt-16">
          <mxGeometry relative="1" as="geometry" />
        </mxCell>
        <mxCell id="j_e9VoBYmgcrXOVCCWzt-28" value="" style="shape=waypoint;sketch=0;fillStyle=solid;size=6;pointerEvents=1;points=[];fillColor=none;resizable=0;rotatable=0;perimeter=centerPerimeter;snapToPoint=1;strokeColor=default;strokeWidth=0;align=center;verticalAlign=middle;fontFamily=Helvetica;fontSize=11;fontColor=default;labelBackgroundColor=default;" vertex="1" parent="1">
          <mxGeometry x="350" y="210" width="20" height="20" as="geometry" />
        </mxCell>
        <mxCell id="j_e9VoBYmgcrXOVCCWzt-30" value="" style="group" vertex="1" connectable="0" parent="1">
          <mxGeometry x="590" y="290" width="20" height="20" as="geometry" />
        </mxCell>
        <mxCell id="j_e9VoBYmgcrXOVCCWzt-31" value="" style="ellipse;whiteSpace=wrap;html=1;aspect=fixed;fillColor=none;" vertex="1" parent="j_e9VoBYmgcrXOVCCWzt-30">
          <mxGeometry width="20" height="20" as="geometry" />
        </mxCell>
        <mxCell id="j_e9VoBYmgcrXOVCCWzt-32" value="" style="endArrow=none;html=1;rounded=0;" edge="1" parent="j_e9VoBYmgcrXOVCCWzt-30">
          <mxGeometry width="50" height="50" relative="1" as="geometry">
            <mxPoint x="9.920000000000016" y="15" as="sourcePoint" />
            <mxPoint x="9.920000000000016" y="5" as="targetPoint" />
          </mxGeometry>
        </mxCell>
        <mxCell id="j_e9VoBYmgcrXOVCCWzt-33" value="" style="endArrow=none;html=1;rounded=0;" edge="1" parent="j_e9VoBYmgcrXOVCCWzt-30">
          <mxGeometry width="50" height="50" relative="1" as="geometry">
            <mxPoint x="5" y="9.930000000000007" as="sourcePoint" />
            <mxPoint x="15" y="9.930000000000007" as="targetPoint" />
          </mxGeometry>
        </mxCell>
        <mxCell id="j_e9VoBYmgcrXOVCCWzt-34" style="edgeStyle=orthogonalEdgeStyle;shape=connector;rounded=0;orthogonalLoop=1;jettySize=auto;html=1;exitX=1;exitY=0.5;exitDx=0;exitDy=0;entryX=0;entryY=0.5;entryDx=0;entryDy=0;strokeColor=default;align=center;verticalAlign=middle;fontFamily=Helvetica;fontSize=11;fontColor=default;labelBackgroundColor=default;resizable=0;endArrow=blockThin;endFill=1;" edge="1" parent="1" source="j_e9VoBYmgcrXOVCCWzt-35" target="j_e9VoBYmgcrXOVCCWzt-44">
          <mxGeometry relative="1" as="geometry" />
        </mxCell>
        <mxCell id="j_e9VoBYmgcrXOVCCWzt-35" value="$$z^{-1}$$" style="whiteSpace=wrap;html=1;aspect=fixed;fillColor=none;" vertex="1" parent="1">
          <mxGeometry x="640" y="200" width="40" height="40" as="geometry" />
        </mxCell>
        <mxCell id="j_e9VoBYmgcrXOVCCWzt-36" value="" style="shape=waypoint;sketch=0;fillStyle=solid;size=6;pointerEvents=1;points=[];fillColor=none;resizable=0;rotatable=0;perimeter=centerPerimeter;snapToPoint=1;fontFamily=Helvetica;fontSize=11;fontColor=default;labelBackgroundColor=default;strokeWidth=0;" vertex="1" parent="1">
          <mxGeometry x="590" y="210" width="20" height="20" as="geometry" />
        </mxCell>
        <mxCell id="j_e9VoBYmgcrXOVCCWzt-37" style="edgeStyle=orthogonalEdgeStyle;shape=connector;rounded=0;orthogonalLoop=1;jettySize=auto;html=1;exitX=0.5;exitY=0;exitDx=0;exitDy=0;strokeColor=default;align=center;verticalAlign=middle;fontFamily=Helvetica;fontSize=11;fontColor=default;labelBackgroundColor=default;endArrow=none;endFill=0;startArrow=blockThin;startFill=1;flowAnimation=0;shadow=0;jumpStyle=none;" edge="1" parent="1" source="j_e9VoBYmgcrXOVCCWzt-39" target="j_e9VoBYmgcrXOVCCWzt-36">
          <mxGeometry relative="1" as="geometry">
            <mxPoint x="620" y="230" as="targetPoint" />
          </mxGeometry>
        </mxCell>
        <mxCell id="j_e9VoBYmgcrXOVCCWzt-38" style="edgeStyle=orthogonalEdgeStyle;shape=connector;rounded=0;orthogonalLoop=1;jettySize=auto;html=1;exitX=0.5;exitY=1;exitDx=0;exitDy=0;entryX=0.5;entryY=0;entryDx=0;entryDy=0;strokeColor=default;align=center;verticalAlign=middle;fontFamily=Helvetica;fontSize=11;fontColor=default;labelBackgroundColor=default;resizable=0;endArrow=blockThin;endFill=1;" edge="1" parent="1" source="j_e9VoBYmgcrXOVCCWzt-39" target="j_e9VoBYmgcrXOVCCWzt-31">
          <mxGeometry relative="1" as="geometry" />
        </mxCell>
        <mxCell id="j_e9VoBYmgcrXOVCCWzt-39" value="" style="ellipse;whiteSpace=wrap;html=1;aspect=fixed;fillColor=none;" vertex="1" parent="1">
          <mxGeometry x="590" y="250" width="20" height="20" as="geometry" />
        </mxCell>
        <mxCell id="j_e9VoBYmgcrXOVCCWzt-40" value="" style="endArrow=none;html=1;rounded=0;entryX=1;entryY=0;entryDx=0;entryDy=0;exitX=0;exitY=1;exitDx=0;exitDy=0;" edge="1" parent="1" source="j_e9VoBYmgcrXOVCCWzt-39" target="j_e9VoBYmgcrXOVCCWzt-39">
          <mxGeometry width="50" height="50" relative="1" as="geometry">
            <mxPoint x="580" y="300" as="sourcePoint" />
            <mxPoint x="630" y="250" as="targetPoint" />
          </mxGeometry>
        </mxCell>
        <mxCell id="j_e9VoBYmgcrXOVCCWzt-41" value="" style="endArrow=none;html=1;rounded=0;entryX=0;entryY=0;entryDx=0;entryDy=0;exitX=1;exitY=1;exitDx=0;exitDy=0;" edge="1" parent="1" source="j_e9VoBYmgcrXOVCCWzt-39" target="j_e9VoBYmgcrXOVCCWzt-39">
          <mxGeometry width="50" height="50" relative="1" as="geometry">
            <mxPoint x="580" y="300" as="sourcePoint" />
            <mxPoint x="630" y="250" as="targetPoint" />
          </mxGeometry>
        </mxCell>
        <mxCell id="j_e9VoBYmgcrXOVCCWzt-42" value="$$h[4]$$" style="text;html=1;align=center;verticalAlign=middle;whiteSpace=wrap;rounded=0;fontFamily=Helvetica;fontSize=11;fontColor=default;labelBackgroundColor=none;resizable=0;fillColor=none;" vertex="1" parent="1">
          <mxGeometry x="600" y="245" width="60" height="30" as="geometry" />
        </mxCell>
        <mxCell id="j_e9VoBYmgcrXOVCCWzt-43" style="edgeStyle=orthogonalEdgeStyle;rounded=0;orthogonalLoop=1;jettySize=auto;html=1;exitX=1;exitY=0.5;exitDx=0;exitDy=0;entryX=0;entryY=0.5;entryDx=0;entryDy=0;endArrow=blockThin;endFill=1;" edge="1" parent="1" source="j_e9VoBYmgcrXOVCCWzt-44" target="j_e9VoBYmgcrXOVCCWzt-49">
          <mxGeometry relative="1" as="geometry" />
        </mxCell>
        <mxCell id="j_e9VoBYmgcrXOVCCWzt-44" value="$$z^{-1}$$" style="whiteSpace=wrap;html=1;aspect=fixed;fillColor=none;" vertex="1" parent="1">
          <mxGeometry x="760" y="200" width="40" height="40" as="geometry" />
        </mxCell>
        <mxCell id="j_e9VoBYmgcrXOVCCWzt-45" value="" style="group" vertex="1" connectable="0" parent="1">
          <mxGeometry x="830" y="290" width="20" height="20" as="geometry" />
        </mxCell>
        <mxCell id="j_e9VoBYmgcrXOVCCWzt-46" value="" style="ellipse;whiteSpace=wrap;html=1;aspect=fixed;fillColor=none;" vertex="1" parent="j_e9VoBYmgcrXOVCCWzt-45">
          <mxGeometry width="20" height="20" as="geometry" />
        </mxCell>
        <mxCell id="j_e9VoBYmgcrXOVCCWzt-47" value="" style="endArrow=none;html=1;rounded=0;" edge="1" parent="j_e9VoBYmgcrXOVCCWzt-45">
          <mxGeometry width="50" height="50" relative="1" as="geometry">
            <mxPoint x="9.920000000000016" y="15" as="sourcePoint" />
            <mxPoint x="9.920000000000016" y="5" as="targetPoint" />
          </mxGeometry>
        </mxCell>
        <mxCell id="j_e9VoBYmgcrXOVCCWzt-48" value="" style="endArrow=none;html=1;rounded=0;" edge="1" parent="j_e9VoBYmgcrXOVCCWzt-45">
          <mxGeometry width="50" height="50" relative="1" as="geometry">
            <mxPoint x="5" y="9.930000000000007" as="sourcePoint" />
            <mxPoint x="15" y="9.930000000000007" as="targetPoint" />
          </mxGeometry>
        </mxCell>
        <mxCell id="j_e9VoBYmgcrXOVCCWzt-81" style="edgeStyle=orthogonalEdgeStyle;shape=connector;rounded=0;orthogonalLoop=1;jettySize=auto;html=1;exitX=1;exitY=0.5;exitDx=0;exitDy=0;entryX=0.5;entryY=0;entryDx=0;entryDy=0;strokeColor=default;align=center;verticalAlign=middle;fontFamily=Helvetica;fontSize=11;fontColor=default;labelBackgroundColor=default;resizable=0;endArrow=blockThin;endFill=1;" edge="1" parent="1" source="j_e9VoBYmgcrXOVCCWzt-49" target="j_e9VoBYmgcrXOVCCWzt-77">
          <mxGeometry relative="1" as="geometry" />
        </mxCell>
        <mxCell id="j_e9VoBYmgcrXOVCCWzt-49" value="$$z^{-1}$$" style="whiteSpace=wrap;html=1;aspect=fixed;fillColor=none;" vertex="1" parent="1">
          <mxGeometry x="880" y="200" width="40" height="40" as="geometry" />
        </mxCell>
        <mxCell id="j_e9VoBYmgcrXOVCCWzt-50" value="" style="shape=waypoint;sketch=0;fillStyle=solid;size=6;pointerEvents=1;points=[];fillColor=none;resizable=0;rotatable=0;perimeter=centerPerimeter;snapToPoint=1;fontFamily=Helvetica;fontSize=11;fontColor=default;labelBackgroundColor=default;strokeWidth=0;" vertex="1" parent="1">
          <mxGeometry x="830" y="210" width="20" height="20" as="geometry" />
        </mxCell>
        <mxCell id="j_e9VoBYmgcrXOVCCWzt-51" style="edgeStyle=orthogonalEdgeStyle;shape=connector;rounded=0;orthogonalLoop=1;jettySize=auto;html=1;exitX=0.5;exitY=0;exitDx=0;exitDy=0;strokeColor=default;align=center;verticalAlign=middle;fontFamily=Helvetica;fontSize=11;fontColor=default;labelBackgroundColor=default;endArrow=none;endFill=0;startArrow=blockThin;startFill=1;flowAnimation=0;shadow=0;jumpStyle=none;" edge="1" parent="1" source="j_e9VoBYmgcrXOVCCWzt-53" target="j_e9VoBYmgcrXOVCCWzt-50">
          <mxGeometry relative="1" as="geometry">
            <mxPoint x="860" y="230" as="targetPoint" />
          </mxGeometry>
        </mxCell>
        <mxCell id="j_e9VoBYmgcrXOVCCWzt-52" style="edgeStyle=orthogonalEdgeStyle;shape=connector;rounded=0;orthogonalLoop=1;jettySize=auto;html=1;exitX=0.5;exitY=1;exitDx=0;exitDy=0;entryX=0.5;entryY=0;entryDx=0;entryDy=0;strokeColor=default;align=center;verticalAlign=middle;fontFamily=Helvetica;fontSize=11;fontColor=default;labelBackgroundColor=default;resizable=0;endArrow=blockThin;endFill=1;" edge="1" parent="1" source="j_e9VoBYmgcrXOVCCWzt-53" target="j_e9VoBYmgcrXOVCCWzt-46">
          <mxGeometry relative="1" as="geometry" />
        </mxCell>
        <mxCell id="j_e9VoBYmgcrXOVCCWzt-53" value="" style="ellipse;whiteSpace=wrap;html=1;aspect=fixed;fillColor=none;" vertex="1" parent="1">
          <mxGeometry x="830" y="250" width="20" height="20" as="geometry" />
        </mxCell>
        <mxCell id="j_e9VoBYmgcrXOVCCWzt-54" value="" style="endArrow=none;html=1;rounded=0;entryX=1;entryY=0;entryDx=0;entryDy=0;exitX=0;exitY=1;exitDx=0;exitDy=0;" edge="1" parent="1" source="j_e9VoBYmgcrXOVCCWzt-53" target="j_e9VoBYmgcrXOVCCWzt-53">
          <mxGeometry width="50" height="50" relative="1" as="geometry">
            <mxPoint x="820" y="300" as="sourcePoint" />
            <mxPoint x="870" y="250" as="targetPoint" />
          </mxGeometry>
        </mxCell>
        <mxCell id="j_e9VoBYmgcrXOVCCWzt-55" value="" style="endArrow=none;html=1;rounded=0;entryX=0;entryY=0;entryDx=0;entryDy=0;exitX=1;exitY=1;exitDx=0;exitDy=0;" edge="1" parent="1" source="j_e9VoBYmgcrXOVCCWzt-53" target="j_e9VoBYmgcrXOVCCWzt-53">
          <mxGeometry width="50" height="50" relative="1" as="geometry">
            <mxPoint x="820" y="300" as="sourcePoint" />
            <mxPoint x="870" y="250" as="targetPoint" />
          </mxGeometry>
        </mxCell>
        <mxCell id="j_e9VoBYmgcrXOVCCWzt-56" value="$$h[6]$$" style="text;html=1;align=center;verticalAlign=middle;whiteSpace=wrap;rounded=0;fontFamily=Helvetica;fontSize=11;fontColor=default;labelBackgroundColor=none;resizable=0;fillColor=none;" vertex="1" parent="1">
          <mxGeometry x="840" y="245" width="60" height="30" as="geometry" />
        </mxCell>
        <mxCell id="j_e9VoBYmgcrXOVCCWzt-57" style="edgeStyle=orthogonalEdgeStyle;shape=connector;rounded=0;orthogonalLoop=1;jettySize=auto;html=1;exitX=0.5;exitY=1;exitDx=0;exitDy=0;entryX=0.5;entryY=0;entryDx=0;entryDy=0;strokeColor=default;align=center;verticalAlign=middle;fontFamily=Helvetica;fontSize=11;fontColor=default;labelBackgroundColor=default;resizable=0;endArrow=blockThin;endFill=1;" edge="1" parent="1" source="j_e9VoBYmgcrXOVCCWzt-58" target="j_e9VoBYmgcrXOVCCWzt-63">
          <mxGeometry relative="1" as="geometry" />
        </mxCell>
        <mxCell id="j_e9VoBYmgcrXOVCCWzt-58" value="" style="ellipse;whiteSpace=wrap;html=1;aspect=fixed;fillColor=none;" vertex="1" parent="1">
          <mxGeometry x="710" y="250" width="20" height="20" as="geometry" />
        </mxCell>
        <mxCell id="j_e9VoBYmgcrXOVCCWzt-59" value="" style="endArrow=none;html=1;rounded=0;entryX=1;entryY=0;entryDx=0;entryDy=0;exitX=0;exitY=1;exitDx=0;exitDy=0;" edge="1" parent="1" source="j_e9VoBYmgcrXOVCCWzt-58" target="j_e9VoBYmgcrXOVCCWzt-58">
          <mxGeometry width="50" height="50" relative="1" as="geometry">
            <mxPoint x="700" y="300" as="sourcePoint" />
            <mxPoint x="750" y="250" as="targetPoint" />
          </mxGeometry>
        </mxCell>
        <mxCell id="j_e9VoBYmgcrXOVCCWzt-60" value="" style="endArrow=none;html=1;rounded=0;entryX=0;entryY=0;entryDx=0;entryDy=0;exitX=1;exitY=1;exitDx=0;exitDy=0;" edge="1" parent="1" source="j_e9VoBYmgcrXOVCCWzt-58" target="j_e9VoBYmgcrXOVCCWzt-58">
          <mxGeometry width="50" height="50" relative="1" as="geometry">
            <mxPoint x="700" y="300" as="sourcePoint" />
            <mxPoint x="750" y="250" as="targetPoint" />
          </mxGeometry>
        </mxCell>
        <mxCell id="j_e9VoBYmgcrXOVCCWzt-61" value="$$h[5]$$" style="text;html=1;align=center;verticalAlign=middle;whiteSpace=wrap;rounded=0;fontFamily=Helvetica;fontSize=11;fontColor=default;labelBackgroundColor=none;resizable=0;fillColor=none;" vertex="1" parent="1">
          <mxGeometry x="720" y="245" width="60" height="30" as="geometry" />
        </mxCell>
        <mxCell id="j_e9VoBYmgcrXOVCCWzt-62" value="" style="group" vertex="1" connectable="0" parent="1">
          <mxGeometry x="710" y="290" width="20" height="20" as="geometry" />
        </mxCell>
        <mxCell id="j_e9VoBYmgcrXOVCCWzt-63" value="" style="ellipse;whiteSpace=wrap;html=1;aspect=fixed;fillColor=none;" vertex="1" parent="j_e9VoBYmgcrXOVCCWzt-62">
          <mxGeometry width="20" height="20" as="geometry" />
        </mxCell>
        <mxCell id="j_e9VoBYmgcrXOVCCWzt-64" value="" style="endArrow=none;html=1;rounded=0;" edge="1" parent="j_e9VoBYmgcrXOVCCWzt-62">
          <mxGeometry width="50" height="50" relative="1" as="geometry">
            <mxPoint x="9.920000000000016" y="15" as="sourcePoint" />
            <mxPoint x="9.920000000000016" y="5" as="targetPoint" />
          </mxGeometry>
        </mxCell>
        <mxCell id="j_e9VoBYmgcrXOVCCWzt-65" value="" style="endArrow=none;html=1;rounded=0;" edge="1" parent="j_e9VoBYmgcrXOVCCWzt-62">
          <mxGeometry width="50" height="50" relative="1" as="geometry">
            <mxPoint x="5" y="9.930000000000007" as="sourcePoint" />
            <mxPoint x="15" y="9.930000000000007" as="targetPoint" />
          </mxGeometry>
        </mxCell>
        <mxCell id="j_e9VoBYmgcrXOVCCWzt-66" style="edgeStyle=orthogonalEdgeStyle;shape=connector;rounded=0;orthogonalLoop=1;jettySize=auto;html=1;exitX=1;exitY=0.5;exitDx=0;exitDy=0;entryX=0;entryY=0.5;entryDx=0;entryDy=0;strokeColor=default;align=center;verticalAlign=middle;fontFamily=Helvetica;fontSize=11;fontColor=default;labelBackgroundColor=default;resizable=0;endArrow=blockThin;endFill=1;" edge="1" parent="1" source="j_e9VoBYmgcrXOVCCWzt-31" target="j_e9VoBYmgcrXOVCCWzt-63">
          <mxGeometry relative="1" as="geometry" />
        </mxCell>
        <mxCell id="j_e9VoBYmgcrXOVCCWzt-67" style="edgeStyle=orthogonalEdgeStyle;shape=connector;rounded=0;orthogonalLoop=1;jettySize=auto;html=1;exitX=1;exitY=0.5;exitDx=0;exitDy=0;entryX=0;entryY=0.5;entryDx=0;entryDy=0;strokeColor=default;align=center;verticalAlign=middle;fontFamily=Helvetica;fontSize=11;fontColor=default;labelBackgroundColor=default;resizable=0;endArrow=blockThin;endFill=1;" edge="1" parent="1" source="j_e9VoBYmgcrXOVCCWzt-63" target="j_e9VoBYmgcrXOVCCWzt-46">
          <mxGeometry relative="1" as="geometry" />
        </mxCell>
        <mxCell id="j_e9VoBYmgcrXOVCCWzt-68" style="edgeStyle=orthogonalEdgeStyle;shape=connector;rounded=0;orthogonalLoop=1;jettySize=auto;html=1;entryX=0.5;entryY=0;entryDx=0;entryDy=0;strokeColor=default;align=center;verticalAlign=middle;fontFamily=Helvetica;fontSize=11;fontColor=default;labelBackgroundColor=default;resizable=0;endArrow=blockThin;endFill=1;" edge="1" parent="1" source="j_e9VoBYmgcrXOVCCWzt-69" target="j_e9VoBYmgcrXOVCCWzt-58">
          <mxGeometry relative="1" as="geometry" />
        </mxCell>
        <mxCell id="j_e9VoBYmgcrXOVCCWzt-69" value="" style="shape=waypoint;sketch=0;fillStyle=solid;size=6;pointerEvents=1;points=[];fillColor=none;resizable=0;rotatable=0;perimeter=centerPerimeter;snapToPoint=1;strokeColor=default;strokeWidth=0;align=center;verticalAlign=middle;fontFamily=Helvetica;fontSize=11;fontColor=default;labelBackgroundColor=default;" vertex="1" parent="1">
          <mxGeometry x="710" y="210" width="20" height="20" as="geometry" />
        </mxCell>
        <mxCell id="j_e9VoBYmgcrXOVCCWzt-71" style="edgeStyle=orthogonalEdgeStyle;shape=connector;rounded=0;orthogonalLoop=1;jettySize=auto;html=1;exitX=1;exitY=0.5;exitDx=0;exitDy=0;entryX=0;entryY=0.5;entryDx=0;entryDy=0;strokeColor=default;align=center;verticalAlign=middle;fontFamily=Helvetica;fontSize=11;fontColor=default;labelBackgroundColor=default;resizable=0;endArrow=blockThin;endFill=1;" edge="1" parent="1" source="j_e9VoBYmgcrXOVCCWzt-4" target="j_e9VoBYmgcrXOVCCWzt-31">
          <mxGeometry relative="1" as="geometry" />
        </mxCell>
        <mxCell id="j_e9VoBYmgcrXOVCCWzt-72" value="" style="group" vertex="1" connectable="0" parent="1">
          <mxGeometry x="950" y="290" width="20" height="20" as="geometry" />
        </mxCell>
        <mxCell id="j_e9VoBYmgcrXOVCCWzt-83" style="edgeStyle=orthogonalEdgeStyle;shape=connector;rounded=0;orthogonalLoop=1;jettySize=auto;html=1;exitX=1;exitY=0.5;exitDx=0;exitDy=0;strokeColor=default;align=center;verticalAlign=middle;fontFamily=Helvetica;fontSize=11;fontColor=default;labelBackgroundColor=default;resizable=0;endArrow=blockThin;endFill=1;" edge="1" parent="j_e9VoBYmgcrXOVCCWzt-72" source="j_e9VoBYmgcrXOVCCWzt-73">
          <mxGeometry relative="1" as="geometry">
            <mxPoint x="60" y="10" as="targetPoint" />
          </mxGeometry>
        </mxCell>
        <mxCell id="j_e9VoBYmgcrXOVCCWzt-73" value="" style="ellipse;whiteSpace=wrap;html=1;aspect=fixed;fillColor=none;" vertex="1" parent="j_e9VoBYmgcrXOVCCWzt-72">
          <mxGeometry width="20" height="20" as="geometry" />
        </mxCell>
        <mxCell id="j_e9VoBYmgcrXOVCCWzt-74" value="" style="endArrow=none;html=1;rounded=0;" edge="1" parent="j_e9VoBYmgcrXOVCCWzt-72">
          <mxGeometry width="50" height="50" relative="1" as="geometry">
            <mxPoint x="9.920000000000016" y="15" as="sourcePoint" />
            <mxPoint x="9.920000000000016" y="5" as="targetPoint" />
          </mxGeometry>
        </mxCell>
        <mxCell id="j_e9VoBYmgcrXOVCCWzt-75" value="" style="endArrow=none;html=1;rounded=0;" edge="1" parent="j_e9VoBYmgcrXOVCCWzt-72">
          <mxGeometry width="50" height="50" relative="1" as="geometry">
            <mxPoint x="5" y="9.930000000000007" as="sourcePoint" />
            <mxPoint x="15" y="9.930000000000007" as="targetPoint" />
          </mxGeometry>
        </mxCell>
        <mxCell id="j_e9VoBYmgcrXOVCCWzt-76" style="edgeStyle=orthogonalEdgeStyle;shape=connector;rounded=0;orthogonalLoop=1;jettySize=auto;html=1;exitX=0.5;exitY=1;exitDx=0;exitDy=0;entryX=0.5;entryY=0;entryDx=0;entryDy=0;strokeColor=default;align=center;verticalAlign=middle;fontFamily=Helvetica;fontSize=11;fontColor=default;labelBackgroundColor=default;resizable=0;endArrow=blockThin;endFill=1;" edge="1" parent="1" source="j_e9VoBYmgcrXOVCCWzt-77" target="j_e9VoBYmgcrXOVCCWzt-73">
          <mxGeometry relative="1" as="geometry" />
        </mxCell>
        <mxCell id="j_e9VoBYmgcrXOVCCWzt-77" value="" style="ellipse;whiteSpace=wrap;html=1;aspect=fixed;fillColor=none;" vertex="1" parent="1">
          <mxGeometry x="950" y="250" width="20" height="20" as="geometry" />
        </mxCell>
        <mxCell id="j_e9VoBYmgcrXOVCCWzt-78" value="" style="endArrow=none;html=1;rounded=0;entryX=1;entryY=0;entryDx=0;entryDy=0;exitX=0;exitY=1;exitDx=0;exitDy=0;" edge="1" parent="1" source="j_e9VoBYmgcrXOVCCWzt-77" target="j_e9VoBYmgcrXOVCCWzt-77">
          <mxGeometry width="50" height="50" relative="1" as="geometry">
            <mxPoint x="940" y="300" as="sourcePoint" />
            <mxPoint x="990" y="250" as="targetPoint" />
          </mxGeometry>
        </mxCell>
        <mxCell id="j_e9VoBYmgcrXOVCCWzt-79" value="" style="endArrow=none;html=1;rounded=0;entryX=0;entryY=0;entryDx=0;entryDy=0;exitX=1;exitY=1;exitDx=0;exitDy=0;" edge="1" parent="1" source="j_e9VoBYmgcrXOVCCWzt-77" target="j_e9VoBYmgcrXOVCCWzt-77">
          <mxGeometry width="50" height="50" relative="1" as="geometry">
            <mxPoint x="940" y="300" as="sourcePoint" />
            <mxPoint x="990" y="250" as="targetPoint" />
          </mxGeometry>
        </mxCell>
        <mxCell id="j_e9VoBYmgcrXOVCCWzt-80" value="$$h[7]$$" style="text;html=1;align=center;verticalAlign=middle;whiteSpace=wrap;rounded=0;fontFamily=Helvetica;fontSize=11;fontColor=default;labelBackgroundColor=none;resizable=0;fillColor=none;" vertex="1" parent="1">
          <mxGeometry x="960" y="245" width="60" height="30" as="geometry" />
        </mxCell>
        <mxCell id="j_e9VoBYmgcrXOVCCWzt-82" style="edgeStyle=orthogonalEdgeStyle;shape=connector;rounded=0;orthogonalLoop=1;jettySize=auto;html=1;exitX=1;exitY=0.5;exitDx=0;exitDy=0;entryX=0;entryY=0.5;entryDx=0;entryDy=0;strokeColor=default;align=center;verticalAlign=middle;fontFamily=Helvetica;fontSize=11;fontColor=default;labelBackgroundColor=default;resizable=0;endArrow=blockThin;endFill=1;" edge="1" parent="1" source="j_e9VoBYmgcrXOVCCWzt-46" target="j_e9VoBYmgcrXOVCCWzt-73">
          <mxGeometry relative="1" as="geometry" />
        </mxCell>
        <mxCell id="j_e9VoBYmgcrXOVCCWzt-84" value="$$y[n]$$" style="text;html=1;align=center;verticalAlign=middle;whiteSpace=wrap;rounded=0;fontFamily=Helvetica;fontSize=11;fontColor=default;labelBackgroundColor=none;resizable=0;fillColor=none;" vertex="1" parent="1">
          <mxGeometry x="1000" y="285" width="60" height="30" as="geometry" />
        </mxCell>
        <mxCell id="j_e9VoBYmgcrXOVCCWzt-87" style="edgeStyle=orthogonalEdgeStyle;rounded=0;orthogonalLoop=1;jettySize=auto;html=1;exitX=1;exitY=0.5;exitDx=0;exitDy=0;entryX=0;entryY=0.5;entryDx=0;entryDy=0;endArrow=blockThin;endFill=1;" edge="1" parent="1" source="j_e9VoBYmgcrXOVCCWzt-88" target="j_e9VoBYmgcrXOVCCWzt-94">
          <mxGeometry relative="1" as="geometry" />
        </mxCell>
        <mxCell id="j_e9VoBYmgcrXOVCCWzt-88" value="$$z^{-1}$$" style="whiteSpace=wrap;html=1;aspect=fixed;fillColor=none;" vertex="1" parent="1">
          <mxGeometry x="190" y="450" width="40" height="40" as="geometry" />
        </mxCell>
        <mxCell id="j_e9VoBYmgcrXOVCCWzt-89" value="" style="group" vertex="1" connectable="0" parent="1">
          <mxGeometry x="260" y="540" width="20" height="20" as="geometry" />
        </mxCell>
        <mxCell id="j_e9VoBYmgcrXOVCCWzt-90" value="" style="ellipse;whiteSpace=wrap;html=1;aspect=fixed;fillColor=none;" vertex="1" parent="j_e9VoBYmgcrXOVCCWzt-89">
          <mxGeometry width="20" height="20" as="geometry" />
        </mxCell>
        <mxCell id="j_e9VoBYmgcrXOVCCWzt-91" value="" style="endArrow=none;html=1;rounded=0;" edge="1" parent="j_e9VoBYmgcrXOVCCWzt-89">
          <mxGeometry width="50" height="50" relative="1" as="geometry">
            <mxPoint x="9.920000000000016" y="15" as="sourcePoint" />
            <mxPoint x="9.920000000000016" y="5" as="targetPoint" />
          </mxGeometry>
        </mxCell>
        <mxCell id="j_e9VoBYmgcrXOVCCWzt-92" value="" style="endArrow=none;html=1;rounded=0;" edge="1" parent="j_e9VoBYmgcrXOVCCWzt-89">
          <mxGeometry width="50" height="50" relative="1" as="geometry">
            <mxPoint x="5" y="9.930000000000007" as="sourcePoint" />
            <mxPoint x="15" y="9.930000000000007" as="targetPoint" />
          </mxGeometry>
        </mxCell>
        <mxCell id="j_e9VoBYmgcrXOVCCWzt-93" style="edgeStyle=orthogonalEdgeStyle;shape=connector;rounded=0;orthogonalLoop=1;jettySize=auto;html=1;exitX=1;exitY=0.5;exitDx=0;exitDy=0;entryX=0;entryY=0.5;entryDx=0;entryDy=0;strokeColor=default;align=center;verticalAlign=middle;fontFamily=Helvetica;fontSize=11;fontColor=default;labelBackgroundColor=default;resizable=0;endArrow=blockThin;endFill=1;" edge="1" parent="1" source="j_e9VoBYmgcrXOVCCWzt-94" target="j_e9VoBYmgcrXOVCCWzt-112">
          <mxGeometry relative="1" as="geometry" />
        </mxCell>
        <mxCell id="j_e9VoBYmgcrXOVCCWzt-94" value="$$z^{-1}$$" style="whiteSpace=wrap;html=1;aspect=fixed;fillColor=none;" vertex="1" parent="1">
          <mxGeometry x="310" y="450" width="40" height="40" as="geometry" />
        </mxCell>
        <mxCell id="j_e9VoBYmgcrXOVCCWzt-95" value="" style="shape=waypoint;sketch=0;fillStyle=solid;size=6;pointerEvents=1;points=[];fillColor=none;resizable=0;rotatable=0;perimeter=centerPerimeter;snapToPoint=1;fontFamily=Helvetica;fontSize=11;fontColor=default;labelBackgroundColor=default;strokeWidth=0;" vertex="1" parent="1">
          <mxGeometry x="260" y="460" width="20" height="20" as="geometry" />
        </mxCell>
        <mxCell id="j_e9VoBYmgcrXOVCCWzt-96" style="edgeStyle=orthogonalEdgeStyle;shape=connector;rounded=0;orthogonalLoop=1;jettySize=auto;html=1;exitX=0.5;exitY=0;exitDx=0;exitDy=0;strokeColor=default;align=center;verticalAlign=middle;fontFamily=Helvetica;fontSize=11;fontColor=default;labelBackgroundColor=default;endArrow=none;endFill=0;startArrow=blockThin;startFill=1;flowAnimation=0;shadow=0;jumpStyle=none;" edge="1" parent="1" source="j_e9VoBYmgcrXOVCCWzt-98" target="j_e9VoBYmgcrXOVCCWzt-95">
          <mxGeometry relative="1" as="geometry">
            <mxPoint x="290" y="480" as="targetPoint" />
          </mxGeometry>
        </mxCell>
        <mxCell id="j_e9VoBYmgcrXOVCCWzt-97" style="edgeStyle=orthogonalEdgeStyle;shape=connector;rounded=0;orthogonalLoop=1;jettySize=auto;html=1;exitX=0.5;exitY=1;exitDx=0;exitDy=0;entryX=0.5;entryY=0;entryDx=0;entryDy=0;strokeColor=default;align=center;verticalAlign=middle;fontFamily=Helvetica;fontSize=11;fontColor=default;labelBackgroundColor=default;resizable=0;endArrow=blockThin;endFill=1;" edge="1" parent="1" source="j_e9VoBYmgcrXOVCCWzt-98" target="j_e9VoBYmgcrXOVCCWzt-90">
          <mxGeometry relative="1" as="geometry" />
        </mxCell>
        <mxCell id="j_e9VoBYmgcrXOVCCWzt-98" value="" style="ellipse;whiteSpace=wrap;html=1;aspect=fixed;fillColor=none;" vertex="1" parent="1">
          <mxGeometry x="260" y="500" width="20" height="20" as="geometry" />
        </mxCell>
        <mxCell id="j_e9VoBYmgcrXOVCCWzt-99" value="" style="endArrow=none;html=1;rounded=0;entryX=1;entryY=0;entryDx=0;entryDy=0;exitX=0;exitY=1;exitDx=0;exitDy=0;" edge="1" parent="1" source="j_e9VoBYmgcrXOVCCWzt-98" target="j_e9VoBYmgcrXOVCCWzt-98">
          <mxGeometry width="50" height="50" relative="1" as="geometry">
            <mxPoint x="250" y="550" as="sourcePoint" />
            <mxPoint x="300" y="500" as="targetPoint" />
          </mxGeometry>
        </mxCell>
        <mxCell id="j_e9VoBYmgcrXOVCCWzt-100" value="" style="endArrow=none;html=1;rounded=0;entryX=0;entryY=0;entryDx=0;entryDy=0;exitX=1;exitY=1;exitDx=0;exitDy=0;" edge="1" parent="1" source="j_e9VoBYmgcrXOVCCWzt-98" target="j_e9VoBYmgcrXOVCCWzt-98">
          <mxGeometry width="50" height="50" relative="1" as="geometry">
            <mxPoint x="250" y="550" as="sourcePoint" />
            <mxPoint x="300" y="500" as="targetPoint" />
          </mxGeometry>
        </mxCell>
        <mxCell id="j_e9VoBYmgcrXOVCCWzt-101" value="$$h[1]$$" style="text;html=1;align=center;verticalAlign=middle;whiteSpace=wrap;rounded=0;fontFamily=Helvetica;fontSize=11;fontColor=default;labelBackgroundColor=none;resizable=0;" vertex="1" parent="1">
          <mxGeometry x="270" y="495" width="60" height="30" as="geometry" />
        </mxCell>
        <mxCell id="j_e9VoBYmgcrXOVCCWzt-102" style="edgeStyle=orthogonalEdgeStyle;shape=connector;rounded=0;orthogonalLoop=1;jettySize=auto;html=1;exitX=0.5;exitY=1;exitDx=0;exitDy=0;entryX=0;entryY=0.5;entryDx=0;entryDy=0;strokeColor=default;align=center;verticalAlign=middle;fontFamily=Helvetica;fontSize=11;fontColor=default;labelBackgroundColor=default;resizable=0;endArrow=blockThin;endFill=1;" edge="1" parent="1" source="j_e9VoBYmgcrXOVCCWzt-103" target="j_e9VoBYmgcrXOVCCWzt-90">
          <mxGeometry relative="1" as="geometry" />
        </mxCell>
        <mxCell id="j_e9VoBYmgcrXOVCCWzt-103" value="" style="ellipse;whiteSpace=wrap;html=1;aspect=fixed;fillColor=none;" vertex="1" parent="1">
          <mxGeometry x="140" y="500" width="20" height="20" as="geometry" />
        </mxCell>
        <mxCell id="j_e9VoBYmgcrXOVCCWzt-104" value="" style="endArrow=none;html=1;rounded=0;entryX=1;entryY=0;entryDx=0;entryDy=0;exitX=0;exitY=1;exitDx=0;exitDy=0;" edge="1" parent="1" source="j_e9VoBYmgcrXOVCCWzt-103" target="j_e9VoBYmgcrXOVCCWzt-103">
          <mxGeometry width="50" height="50" relative="1" as="geometry">
            <mxPoint x="130" y="550" as="sourcePoint" />
            <mxPoint x="180" y="500" as="targetPoint" />
          </mxGeometry>
        </mxCell>
        <mxCell id="j_e9VoBYmgcrXOVCCWzt-105" value="" style="endArrow=none;html=1;rounded=0;entryX=0;entryY=0;entryDx=0;entryDy=0;exitX=1;exitY=1;exitDx=0;exitDy=0;" edge="1" parent="1" source="j_e9VoBYmgcrXOVCCWzt-103" target="j_e9VoBYmgcrXOVCCWzt-103">
          <mxGeometry width="50" height="50" relative="1" as="geometry">
            <mxPoint x="130" y="550" as="sourcePoint" />
            <mxPoint x="180" y="500" as="targetPoint" />
          </mxGeometry>
        </mxCell>
        <mxCell id="j_e9VoBYmgcrXOVCCWzt-106" value="$$h[0]$$" style="text;html=1;align=center;verticalAlign=middle;whiteSpace=wrap;rounded=0;fontFamily=Helvetica;fontSize=11;fontColor=default;labelBackgroundColor=none;resizable=0;" vertex="1" parent="1">
          <mxGeometry x="150" y="495" width="60" height="30" as="geometry" />
        </mxCell>
        <mxCell id="j_e9VoBYmgcrXOVCCWzt-107" style="edgeStyle=orthogonalEdgeStyle;shape=connector;rounded=0;orthogonalLoop=1;jettySize=auto;html=1;entryX=0;entryY=0.5;entryDx=0;entryDy=0;strokeColor=default;align=center;verticalAlign=middle;fontFamily=Helvetica;fontSize=11;fontColor=default;labelBackgroundColor=default;resizable=0;endArrow=blockThin;endFill=1;" edge="1" parent="1" source="j_e9VoBYmgcrXOVCCWzt-110" target="j_e9VoBYmgcrXOVCCWzt-88">
          <mxGeometry relative="1" as="geometry" />
        </mxCell>
        <mxCell id="j_e9VoBYmgcrXOVCCWzt-108" style="edgeStyle=orthogonalEdgeStyle;shape=connector;rounded=0;orthogonalLoop=1;jettySize=auto;html=1;entryX=0.5;entryY=0;entryDx=0;entryDy=0;strokeColor=default;align=center;verticalAlign=middle;fontFamily=Helvetica;fontSize=11;fontColor=default;labelBackgroundColor=default;resizable=0;endArrow=blockThin;endFill=1;" edge="1" parent="1" source="j_e9VoBYmgcrXOVCCWzt-109" target="j_e9VoBYmgcrXOVCCWzt-103">
          <mxGeometry relative="1" as="geometry" />
        </mxCell>
        <mxCell id="j_e9VoBYmgcrXOVCCWzt-109" value="" style="shape=waypoint;sketch=0;fillStyle=solid;size=6;pointerEvents=1;points=[];fillColor=none;resizable=0;rotatable=0;perimeter=centerPerimeter;snapToPoint=1;strokeColor=default;strokeWidth=0;align=center;verticalAlign=middle;fontFamily=Helvetica;fontSize=11;fontColor=default;labelBackgroundColor=default;" vertex="1" parent="1">
          <mxGeometry x="140" y="460" width="20" height="20" as="geometry" />
        </mxCell>
        <mxCell id="j_e9VoBYmgcrXOVCCWzt-110" value="" style="shape=waypoint;sketch=0;fillStyle=solid;size=6;pointerEvents=1;points=[];fillColor=none;resizable=0;rotatable=0;perimeter=centerPerimeter;snapToPoint=1;strokeColor=default;strokeWidth=0;align=center;verticalAlign=middle;fontFamily=Helvetica;fontSize=11;fontColor=default;labelBackgroundColor=default;" vertex="1" parent="1">
          <mxGeometry x="100" y="460" width="20" height="20" as="geometry" />
        </mxCell>
        <mxCell id="j_e9VoBYmgcrXOVCCWzt-111" style="edgeStyle=orthogonalEdgeStyle;rounded=0;orthogonalLoop=1;jettySize=auto;html=1;exitX=1;exitY=0.5;exitDx=0;exitDy=0;entryX=0;entryY=0.5;entryDx=0;entryDy=0;endArrow=blockThin;endFill=1;" edge="1" parent="1" source="j_e9VoBYmgcrXOVCCWzt-112" target="j_e9VoBYmgcrXOVCCWzt-118">
          <mxGeometry relative="1" as="geometry" />
        </mxCell>
        <mxCell id="j_e9VoBYmgcrXOVCCWzt-112" value="$$z^{-1}$$" style="whiteSpace=wrap;html=1;aspect=fixed;fillColor=none;" vertex="1" parent="1">
          <mxGeometry x="430" y="450" width="40" height="40" as="geometry" />
        </mxCell>
        <mxCell id="j_e9VoBYmgcrXOVCCWzt-113" value="" style="group" vertex="1" connectable="0" parent="1">
          <mxGeometry x="500" y="540" width="20" height="20" as="geometry" />
        </mxCell>
        <mxCell id="j_e9VoBYmgcrXOVCCWzt-114" value="" style="ellipse;whiteSpace=wrap;html=1;aspect=fixed;fillColor=none;" vertex="1" parent="j_e9VoBYmgcrXOVCCWzt-113">
          <mxGeometry width="20" height="20" as="geometry" />
        </mxCell>
        <mxCell id="j_e9VoBYmgcrXOVCCWzt-115" value="" style="endArrow=none;html=1;rounded=0;" edge="1" parent="j_e9VoBYmgcrXOVCCWzt-113">
          <mxGeometry width="50" height="50" relative="1" as="geometry">
            <mxPoint x="9.920000000000016" y="15" as="sourcePoint" />
            <mxPoint x="9.920000000000016" y="5" as="targetPoint" />
          </mxGeometry>
        </mxCell>
        <mxCell id="j_e9VoBYmgcrXOVCCWzt-116" value="" style="endArrow=none;html=1;rounded=0;" edge="1" parent="j_e9VoBYmgcrXOVCCWzt-113">
          <mxGeometry width="50" height="50" relative="1" as="geometry">
            <mxPoint x="5" y="9.930000000000007" as="sourcePoint" />
            <mxPoint x="15" y="9.930000000000007" as="targetPoint" />
          </mxGeometry>
        </mxCell>
        <mxCell id="j_e9VoBYmgcrXOVCCWzt-117" style="edgeStyle=orthogonalEdgeStyle;shape=connector;rounded=0;orthogonalLoop=1;jettySize=auto;html=1;exitX=1;exitY=0.5;exitDx=0;exitDy=0;entryX=0;entryY=0.5;entryDx=0;entryDy=0;strokeColor=default;align=center;verticalAlign=middle;fontFamily=Helvetica;fontSize=11;fontColor=default;labelBackgroundColor=default;resizable=0;endArrow=blockThin;endFill=1;" edge="1" parent="1" source="j_e9VoBYmgcrXOVCCWzt-118" target="j_e9VoBYmgcrXOVCCWzt-144">
          <mxGeometry relative="1" as="geometry" />
        </mxCell>
        <mxCell id="j_e9VoBYmgcrXOVCCWzt-118" value="$$z^{-1}$$" style="whiteSpace=wrap;html=1;aspect=fixed;fillColor=none;" vertex="1" parent="1">
          <mxGeometry x="550" y="450" width="40" height="40" as="geometry" />
        </mxCell>
        <mxCell id="j_e9VoBYmgcrXOVCCWzt-119" value="" style="shape=waypoint;sketch=0;fillStyle=solid;size=6;pointerEvents=1;points=[];fillColor=none;resizable=0;rotatable=0;perimeter=centerPerimeter;snapToPoint=1;fontFamily=Helvetica;fontSize=11;fontColor=default;labelBackgroundColor=default;strokeWidth=0;" vertex="1" parent="1">
          <mxGeometry x="500" y="460" width="20" height="20" as="geometry" />
        </mxCell>
        <mxCell id="j_e9VoBYmgcrXOVCCWzt-120" style="edgeStyle=orthogonalEdgeStyle;shape=connector;rounded=0;orthogonalLoop=1;jettySize=auto;html=1;exitX=0.5;exitY=0;exitDx=0;exitDy=0;strokeColor=default;align=center;verticalAlign=middle;fontFamily=Helvetica;fontSize=11;fontColor=default;labelBackgroundColor=default;endArrow=none;endFill=0;startArrow=blockThin;startFill=1;flowAnimation=0;shadow=0;jumpStyle=none;" edge="1" parent="1" source="j_e9VoBYmgcrXOVCCWzt-122" target="j_e9VoBYmgcrXOVCCWzt-119">
          <mxGeometry relative="1" as="geometry">
            <mxPoint x="530" y="480" as="targetPoint" />
          </mxGeometry>
        </mxCell>
        <mxCell id="j_e9VoBYmgcrXOVCCWzt-121" style="edgeStyle=orthogonalEdgeStyle;shape=connector;rounded=0;orthogonalLoop=1;jettySize=auto;html=1;exitX=0.5;exitY=1;exitDx=0;exitDy=0;entryX=0.5;entryY=0;entryDx=0;entryDy=0;strokeColor=default;align=center;verticalAlign=middle;fontFamily=Helvetica;fontSize=11;fontColor=default;labelBackgroundColor=default;resizable=0;endArrow=blockThin;endFill=1;" edge="1" parent="1" source="j_e9VoBYmgcrXOVCCWzt-122" target="j_e9VoBYmgcrXOVCCWzt-114">
          <mxGeometry relative="1" as="geometry" />
        </mxCell>
        <mxCell id="j_e9VoBYmgcrXOVCCWzt-122" value="" style="ellipse;whiteSpace=wrap;html=1;aspect=fixed;fillColor=none;" vertex="1" parent="1">
          <mxGeometry x="500" y="500" width="20" height="20" as="geometry" />
        </mxCell>
        <mxCell id="j_e9VoBYmgcrXOVCCWzt-123" value="" style="endArrow=none;html=1;rounded=0;entryX=1;entryY=0;entryDx=0;entryDy=0;exitX=0;exitY=1;exitDx=0;exitDy=0;" edge="1" parent="1" source="j_e9VoBYmgcrXOVCCWzt-122" target="j_e9VoBYmgcrXOVCCWzt-122">
          <mxGeometry width="50" height="50" relative="1" as="geometry">
            <mxPoint x="490" y="550" as="sourcePoint" />
            <mxPoint x="540" y="500" as="targetPoint" />
          </mxGeometry>
        </mxCell>
        <mxCell id="j_e9VoBYmgcrXOVCCWzt-124" value="" style="endArrow=none;html=1;rounded=0;entryX=0;entryY=0;entryDx=0;entryDy=0;exitX=1;exitY=1;exitDx=0;exitDy=0;" edge="1" parent="1" source="j_e9VoBYmgcrXOVCCWzt-122" target="j_e9VoBYmgcrXOVCCWzt-122">
          <mxGeometry width="50" height="50" relative="1" as="geometry">
            <mxPoint x="490" y="550" as="sourcePoint" />
            <mxPoint x="540" y="500" as="targetPoint" />
          </mxGeometry>
        </mxCell>
        <mxCell id="j_e9VoBYmgcrXOVCCWzt-125" value="$$h[3]$$" style="text;html=1;align=center;verticalAlign=middle;whiteSpace=wrap;rounded=0;fontFamily=Helvetica;fontSize=11;fontColor=default;labelBackgroundColor=none;resizable=0;" vertex="1" parent="1">
          <mxGeometry x="510" y="495" width="60" height="30" as="geometry" />
        </mxCell>
        <mxCell id="j_e9VoBYmgcrXOVCCWzt-126" style="edgeStyle=orthogonalEdgeStyle;shape=connector;rounded=0;orthogonalLoop=1;jettySize=auto;html=1;exitX=0.5;exitY=1;exitDx=0;exitDy=0;entryX=0.5;entryY=0;entryDx=0;entryDy=0;strokeColor=default;align=center;verticalAlign=middle;fontFamily=Helvetica;fontSize=11;fontColor=default;labelBackgroundColor=default;resizable=0;endArrow=blockThin;endFill=1;" edge="1" parent="1" source="j_e9VoBYmgcrXOVCCWzt-127" target="j_e9VoBYmgcrXOVCCWzt-132">
          <mxGeometry relative="1" as="geometry" />
        </mxCell>
        <mxCell id="j_e9VoBYmgcrXOVCCWzt-127" value="" style="ellipse;whiteSpace=wrap;html=1;aspect=fixed;fillColor=none;" vertex="1" parent="1">
          <mxGeometry x="380" y="500" width="20" height="20" as="geometry" />
        </mxCell>
        <mxCell id="j_e9VoBYmgcrXOVCCWzt-128" value="" style="endArrow=none;html=1;rounded=0;entryX=1;entryY=0;entryDx=0;entryDy=0;exitX=0;exitY=1;exitDx=0;exitDy=0;" edge="1" parent="1" source="j_e9VoBYmgcrXOVCCWzt-127" target="j_e9VoBYmgcrXOVCCWzt-127">
          <mxGeometry width="50" height="50" relative="1" as="geometry">
            <mxPoint x="370" y="550" as="sourcePoint" />
            <mxPoint x="420" y="500" as="targetPoint" />
          </mxGeometry>
        </mxCell>
        <mxCell id="j_e9VoBYmgcrXOVCCWzt-129" value="" style="endArrow=none;html=1;rounded=0;entryX=0;entryY=0;entryDx=0;entryDy=0;exitX=1;exitY=1;exitDx=0;exitDy=0;" edge="1" parent="1" source="j_e9VoBYmgcrXOVCCWzt-127" target="j_e9VoBYmgcrXOVCCWzt-127">
          <mxGeometry width="50" height="50" relative="1" as="geometry">
            <mxPoint x="370" y="550" as="sourcePoint" />
            <mxPoint x="420" y="500" as="targetPoint" />
          </mxGeometry>
        </mxCell>
        <mxCell id="j_e9VoBYmgcrXOVCCWzt-130" value="$$h[2]$$" style="text;html=1;align=center;verticalAlign=middle;whiteSpace=wrap;rounded=0;fontFamily=Helvetica;fontSize=11;fontColor=default;labelBackgroundColor=none;resizable=0;" vertex="1" parent="1">
          <mxGeometry x="390" y="495" width="60" height="30" as="geometry" />
        </mxCell>
        <mxCell id="j_e9VoBYmgcrXOVCCWzt-131" value="" style="group" vertex="1" connectable="0" parent="1">
          <mxGeometry x="380" y="540" width="20" height="20" as="geometry" />
        </mxCell>
        <mxCell id="j_e9VoBYmgcrXOVCCWzt-132" value="" style="ellipse;whiteSpace=wrap;html=1;aspect=fixed;fillColor=none;" vertex="1" parent="j_e9VoBYmgcrXOVCCWzt-131">
          <mxGeometry width="20" height="20" as="geometry" />
        </mxCell>
        <mxCell id="j_e9VoBYmgcrXOVCCWzt-133" value="" style="endArrow=none;html=1;rounded=0;" edge="1" parent="j_e9VoBYmgcrXOVCCWzt-131">
          <mxGeometry width="50" height="50" relative="1" as="geometry">
            <mxPoint x="9.920000000000016" y="15" as="sourcePoint" />
            <mxPoint x="9.920000000000016" y="5" as="targetPoint" />
          </mxGeometry>
        </mxCell>
        <mxCell id="j_e9VoBYmgcrXOVCCWzt-134" value="" style="endArrow=none;html=1;rounded=0;" edge="1" parent="j_e9VoBYmgcrXOVCCWzt-131">
          <mxGeometry width="50" height="50" relative="1" as="geometry">
            <mxPoint x="5" y="9.930000000000007" as="sourcePoint" />
            <mxPoint x="15" y="9.930000000000007" as="targetPoint" />
          </mxGeometry>
        </mxCell>
        <mxCell id="j_e9VoBYmgcrXOVCCWzt-135" style="edgeStyle=orthogonalEdgeStyle;shape=connector;rounded=0;orthogonalLoop=1;jettySize=auto;html=1;exitX=1;exitY=0.5;exitDx=0;exitDy=0;entryX=0;entryY=0.5;entryDx=0;entryDy=0;strokeColor=default;align=center;verticalAlign=middle;fontFamily=Helvetica;fontSize=11;fontColor=default;labelBackgroundColor=default;resizable=0;endArrow=blockThin;endFill=1;" edge="1" parent="1" source="j_e9VoBYmgcrXOVCCWzt-90" target="j_e9VoBYmgcrXOVCCWzt-132">
          <mxGeometry relative="1" as="geometry" />
        </mxCell>
        <mxCell id="j_e9VoBYmgcrXOVCCWzt-136" style="edgeStyle=orthogonalEdgeStyle;shape=connector;rounded=0;orthogonalLoop=1;jettySize=auto;html=1;exitX=1;exitY=0.5;exitDx=0;exitDy=0;entryX=0;entryY=0.5;entryDx=0;entryDy=0;strokeColor=default;align=center;verticalAlign=middle;fontFamily=Helvetica;fontSize=11;fontColor=default;labelBackgroundColor=default;resizable=0;endArrow=blockThin;endFill=1;" edge="1" parent="1" source="j_e9VoBYmgcrXOVCCWzt-132" target="j_e9VoBYmgcrXOVCCWzt-114">
          <mxGeometry relative="1" as="geometry" />
        </mxCell>
        <mxCell id="j_e9VoBYmgcrXOVCCWzt-137" style="edgeStyle=orthogonalEdgeStyle;shape=connector;rounded=0;orthogonalLoop=1;jettySize=auto;html=1;entryX=0.5;entryY=0;entryDx=0;entryDy=0;strokeColor=default;align=center;verticalAlign=middle;fontFamily=Helvetica;fontSize=11;fontColor=default;labelBackgroundColor=default;resizable=0;endArrow=blockThin;endFill=1;" edge="1" parent="1" source="j_e9VoBYmgcrXOVCCWzt-138" target="j_e9VoBYmgcrXOVCCWzt-127">
          <mxGeometry relative="1" as="geometry" />
        </mxCell>
        <mxCell id="j_e9VoBYmgcrXOVCCWzt-138" value="" style="shape=waypoint;sketch=0;fillStyle=solid;size=6;pointerEvents=1;points=[];fillColor=none;resizable=0;rotatable=0;perimeter=centerPerimeter;snapToPoint=1;strokeColor=default;strokeWidth=0;align=center;verticalAlign=middle;fontFamily=Helvetica;fontSize=11;fontColor=default;labelBackgroundColor=default;" vertex="1" parent="1">
          <mxGeometry x="380" y="460" width="20" height="20" as="geometry" />
        </mxCell>
        <mxCell id="j_e9VoBYmgcrXOVCCWzt-139" value="" style="group" vertex="1" connectable="0" parent="1">
          <mxGeometry x="620" y="540" width="20" height="20" as="geometry" />
        </mxCell>
        <mxCell id="j_e9VoBYmgcrXOVCCWzt-140" value="" style="ellipse;whiteSpace=wrap;html=1;aspect=fixed;fillColor=none;" vertex="1" parent="j_e9VoBYmgcrXOVCCWzt-139">
          <mxGeometry width="20" height="20" as="geometry" />
        </mxCell>
        <mxCell id="j_e9VoBYmgcrXOVCCWzt-141" value="" style="endArrow=none;html=1;rounded=0;" edge="1" parent="j_e9VoBYmgcrXOVCCWzt-139">
          <mxGeometry width="50" height="50" relative="1" as="geometry">
            <mxPoint x="9.920000000000016" y="15" as="sourcePoint" />
            <mxPoint x="9.920000000000016" y="5" as="targetPoint" />
          </mxGeometry>
        </mxCell>
        <mxCell id="j_e9VoBYmgcrXOVCCWzt-142" value="" style="endArrow=none;html=1;rounded=0;" edge="1" parent="j_e9VoBYmgcrXOVCCWzt-139">
          <mxGeometry width="50" height="50" relative="1" as="geometry">
            <mxPoint x="5" y="9.930000000000007" as="sourcePoint" />
            <mxPoint x="15" y="9.930000000000007" as="targetPoint" />
          </mxGeometry>
        </mxCell>
        <mxCell id="j_e9VoBYmgcrXOVCCWzt-143" style="edgeStyle=orthogonalEdgeStyle;shape=connector;rounded=0;orthogonalLoop=1;jettySize=auto;html=1;exitX=1;exitY=0.5;exitDx=0;exitDy=0;entryX=0;entryY=0.5;entryDx=0;entryDy=0;strokeColor=default;align=center;verticalAlign=middle;fontFamily=Helvetica;fontSize=11;fontColor=default;labelBackgroundColor=default;resizable=0;endArrow=blockThin;endFill=1;" edge="1" parent="1" source="j_e9VoBYmgcrXOVCCWzt-144" target="j_e9VoBYmgcrXOVCCWzt-153">
          <mxGeometry relative="1" as="geometry" />
        </mxCell>
        <mxCell id="j_e9VoBYmgcrXOVCCWzt-144" value="$$z^{-1}$$" style="whiteSpace=wrap;html=1;aspect=fixed;fillColor=none;" vertex="1" parent="1">
          <mxGeometry x="670" y="450" width="40" height="40" as="geometry" />
        </mxCell>
        <mxCell id="j_e9VoBYmgcrXOVCCWzt-145" value="" style="shape=waypoint;sketch=0;fillStyle=solid;size=6;pointerEvents=1;points=[];fillColor=none;resizable=0;rotatable=0;perimeter=centerPerimeter;snapToPoint=1;fontFamily=Helvetica;fontSize=11;fontColor=default;labelBackgroundColor=default;strokeWidth=0;" vertex="1" parent="1">
          <mxGeometry x="620" y="460" width="20" height="20" as="geometry" />
        </mxCell>
        <mxCell id="j_e9VoBYmgcrXOVCCWzt-146" style="edgeStyle=orthogonalEdgeStyle;shape=connector;rounded=0;orthogonalLoop=1;jettySize=auto;html=1;exitX=0.5;exitY=0;exitDx=0;exitDy=0;strokeColor=default;align=center;verticalAlign=middle;fontFamily=Helvetica;fontSize=11;fontColor=default;labelBackgroundColor=default;endArrow=none;endFill=0;startArrow=blockThin;startFill=1;flowAnimation=0;shadow=0;jumpStyle=none;" edge="1" parent="1" source="j_e9VoBYmgcrXOVCCWzt-148" target="j_e9VoBYmgcrXOVCCWzt-145">
          <mxGeometry relative="1" as="geometry">
            <mxPoint x="650" y="480" as="targetPoint" />
          </mxGeometry>
        </mxCell>
        <mxCell id="j_e9VoBYmgcrXOVCCWzt-147" style="edgeStyle=orthogonalEdgeStyle;shape=connector;rounded=0;orthogonalLoop=1;jettySize=auto;html=1;exitX=0.5;exitY=1;exitDx=0;exitDy=0;entryX=0.5;entryY=0;entryDx=0;entryDy=0;strokeColor=default;align=center;verticalAlign=middle;fontFamily=Helvetica;fontSize=11;fontColor=default;labelBackgroundColor=default;resizable=0;endArrow=blockThin;endFill=1;" edge="1" parent="1" source="j_e9VoBYmgcrXOVCCWzt-148" target="j_e9VoBYmgcrXOVCCWzt-140">
          <mxGeometry relative="1" as="geometry" />
        </mxCell>
        <mxCell id="j_e9VoBYmgcrXOVCCWzt-148" value="" style="ellipse;whiteSpace=wrap;html=1;aspect=fixed;fillColor=none;" vertex="1" parent="1">
          <mxGeometry x="620" y="500" width="20" height="20" as="geometry" />
        </mxCell>
        <mxCell id="j_e9VoBYmgcrXOVCCWzt-149" value="" style="endArrow=none;html=1;rounded=0;entryX=1;entryY=0;entryDx=0;entryDy=0;exitX=0;exitY=1;exitDx=0;exitDy=0;" edge="1" parent="1" source="j_e9VoBYmgcrXOVCCWzt-148" target="j_e9VoBYmgcrXOVCCWzt-148">
          <mxGeometry width="50" height="50" relative="1" as="geometry">
            <mxPoint x="610" y="550" as="sourcePoint" />
            <mxPoint x="660" y="500" as="targetPoint" />
          </mxGeometry>
        </mxCell>
        <mxCell id="j_e9VoBYmgcrXOVCCWzt-150" value="" style="endArrow=none;html=1;rounded=0;entryX=0;entryY=0;entryDx=0;entryDy=0;exitX=1;exitY=1;exitDx=0;exitDy=0;" edge="1" parent="1" source="j_e9VoBYmgcrXOVCCWzt-148" target="j_e9VoBYmgcrXOVCCWzt-148">
          <mxGeometry width="50" height="50" relative="1" as="geometry">
            <mxPoint x="610" y="550" as="sourcePoint" />
            <mxPoint x="660" y="500" as="targetPoint" />
          </mxGeometry>
        </mxCell>
        <mxCell id="j_e9VoBYmgcrXOVCCWzt-151" value="$$h[4]$$" style="text;html=1;align=center;verticalAlign=middle;whiteSpace=wrap;rounded=0;fontFamily=Helvetica;fontSize=11;fontColor=default;labelBackgroundColor=none;resizable=0;" vertex="1" parent="1">
          <mxGeometry x="630" y="495" width="60" height="30" as="geometry" />
        </mxCell>
        <mxCell id="j_e9VoBYmgcrXOVCCWzt-152" style="edgeStyle=orthogonalEdgeStyle;rounded=0;orthogonalLoop=1;jettySize=auto;html=1;exitX=1;exitY=0.5;exitDx=0;exitDy=0;entryX=0;entryY=0.5;entryDx=0;entryDy=0;endArrow=blockThin;endFill=1;" edge="1" parent="1" source="j_e9VoBYmgcrXOVCCWzt-153" target="j_e9VoBYmgcrXOVCCWzt-159">
          <mxGeometry relative="1" as="geometry" />
        </mxCell>
        <mxCell id="j_e9VoBYmgcrXOVCCWzt-153" value="$$z^{-1}$$" style="whiteSpace=wrap;html=1;aspect=fixed;fillColor=none;" vertex="1" parent="1">
          <mxGeometry x="790" y="450" width="40" height="40" as="geometry" />
        </mxCell>
        <mxCell id="j_e9VoBYmgcrXOVCCWzt-154" value="" style="group" vertex="1" connectable="0" parent="1">
          <mxGeometry x="860" y="540" width="20" height="20" as="geometry" />
        </mxCell>
        <mxCell id="j_e9VoBYmgcrXOVCCWzt-155" value="" style="ellipse;whiteSpace=wrap;html=1;aspect=fixed;fillColor=none;" vertex="1" parent="j_e9VoBYmgcrXOVCCWzt-154">
          <mxGeometry width="20" height="20" as="geometry" />
        </mxCell>
        <mxCell id="j_e9VoBYmgcrXOVCCWzt-156" value="" style="endArrow=none;html=1;rounded=0;" edge="1" parent="j_e9VoBYmgcrXOVCCWzt-154">
          <mxGeometry width="50" height="50" relative="1" as="geometry">
            <mxPoint x="9.920000000000016" y="15" as="sourcePoint" />
            <mxPoint x="9.920000000000016" y="5" as="targetPoint" />
          </mxGeometry>
        </mxCell>
        <mxCell id="j_e9VoBYmgcrXOVCCWzt-157" value="" style="endArrow=none;html=1;rounded=0;" edge="1" parent="j_e9VoBYmgcrXOVCCWzt-154">
          <mxGeometry width="50" height="50" relative="1" as="geometry">
            <mxPoint x="5" y="9.930000000000007" as="sourcePoint" />
            <mxPoint x="15" y="9.930000000000007" as="targetPoint" />
          </mxGeometry>
        </mxCell>
        <mxCell id="j_e9VoBYmgcrXOVCCWzt-158" style="edgeStyle=orthogonalEdgeStyle;shape=connector;rounded=0;orthogonalLoop=1;jettySize=auto;html=1;exitX=1;exitY=0.5;exitDx=0;exitDy=0;entryX=0.5;entryY=0;entryDx=0;entryDy=0;strokeColor=default;align=center;verticalAlign=middle;fontFamily=Helvetica;fontSize=11;fontColor=default;labelBackgroundColor=default;resizable=0;endArrow=blockThin;endFill=1;" edge="1" parent="1" source="j_e9VoBYmgcrXOVCCWzt-159" target="j_e9VoBYmgcrXOVCCWzt-187">
          <mxGeometry relative="1" as="geometry" />
        </mxCell>
        <mxCell id="j_e9VoBYmgcrXOVCCWzt-159" value="$$z^{-1}$$" style="whiteSpace=wrap;html=1;aspect=fixed;fillColor=none;" vertex="1" parent="1">
          <mxGeometry x="910" y="450" width="40" height="40" as="geometry" />
        </mxCell>
        <mxCell id="j_e9VoBYmgcrXOVCCWzt-160" value="" style="shape=waypoint;sketch=0;fillStyle=solid;size=6;pointerEvents=1;points=[];fillColor=none;resizable=0;rotatable=0;perimeter=centerPerimeter;snapToPoint=1;fontFamily=Helvetica;fontSize=11;fontColor=default;labelBackgroundColor=default;strokeWidth=0;" vertex="1" parent="1">
          <mxGeometry x="860" y="460" width="20" height="20" as="geometry" />
        </mxCell>
        <mxCell id="j_e9VoBYmgcrXOVCCWzt-161" style="edgeStyle=orthogonalEdgeStyle;shape=connector;rounded=0;orthogonalLoop=1;jettySize=auto;html=1;exitX=0.5;exitY=0;exitDx=0;exitDy=0;strokeColor=default;align=center;verticalAlign=middle;fontFamily=Helvetica;fontSize=11;fontColor=default;labelBackgroundColor=default;endArrow=none;endFill=0;startArrow=blockThin;startFill=1;flowAnimation=0;shadow=0;jumpStyle=none;" edge="1" parent="1" source="j_e9VoBYmgcrXOVCCWzt-163" target="j_e9VoBYmgcrXOVCCWzt-160">
          <mxGeometry relative="1" as="geometry">
            <mxPoint x="890" y="480" as="targetPoint" />
          </mxGeometry>
        </mxCell>
        <mxCell id="j_e9VoBYmgcrXOVCCWzt-162" style="edgeStyle=orthogonalEdgeStyle;shape=connector;rounded=0;orthogonalLoop=1;jettySize=auto;html=1;exitX=0.5;exitY=1;exitDx=0;exitDy=0;entryX=0.5;entryY=0;entryDx=0;entryDy=0;strokeColor=default;align=center;verticalAlign=middle;fontFamily=Helvetica;fontSize=11;fontColor=default;labelBackgroundColor=default;resizable=0;endArrow=blockThin;endFill=1;" edge="1" parent="1" source="j_e9VoBYmgcrXOVCCWzt-163" target="j_e9VoBYmgcrXOVCCWzt-155">
          <mxGeometry relative="1" as="geometry" />
        </mxCell>
        <mxCell id="j_e9VoBYmgcrXOVCCWzt-163" value="" style="ellipse;whiteSpace=wrap;html=1;aspect=fixed;fillColor=none;" vertex="1" parent="1">
          <mxGeometry x="860" y="500" width="20" height="20" as="geometry" />
        </mxCell>
        <mxCell id="j_e9VoBYmgcrXOVCCWzt-164" value="" style="endArrow=none;html=1;rounded=0;entryX=1;entryY=0;entryDx=0;entryDy=0;exitX=0;exitY=1;exitDx=0;exitDy=0;" edge="1" parent="1" source="j_e9VoBYmgcrXOVCCWzt-163" target="j_e9VoBYmgcrXOVCCWzt-163">
          <mxGeometry width="50" height="50" relative="1" as="geometry">
            <mxPoint x="850" y="550" as="sourcePoint" />
            <mxPoint x="900" y="500" as="targetPoint" />
          </mxGeometry>
        </mxCell>
        <mxCell id="j_e9VoBYmgcrXOVCCWzt-165" value="" style="endArrow=none;html=1;rounded=0;entryX=0;entryY=0;entryDx=0;entryDy=0;exitX=1;exitY=1;exitDx=0;exitDy=0;" edge="1" parent="1" source="j_e9VoBYmgcrXOVCCWzt-163" target="j_e9VoBYmgcrXOVCCWzt-163">
          <mxGeometry width="50" height="50" relative="1" as="geometry">
            <mxPoint x="850" y="550" as="sourcePoint" />
            <mxPoint x="900" y="500" as="targetPoint" />
          </mxGeometry>
        </mxCell>
        <mxCell id="j_e9VoBYmgcrXOVCCWzt-166" value="$$h[6]$$" style="text;html=1;align=center;verticalAlign=middle;whiteSpace=wrap;rounded=0;fontFamily=Helvetica;fontSize=11;fontColor=default;labelBackgroundColor=none;resizable=0;" vertex="1" parent="1">
          <mxGeometry x="870" y="495" width="60" height="30" as="geometry" />
        </mxCell>
        <mxCell id="j_e9VoBYmgcrXOVCCWzt-167" style="edgeStyle=orthogonalEdgeStyle;shape=connector;rounded=0;orthogonalLoop=1;jettySize=auto;html=1;exitX=0.5;exitY=1;exitDx=0;exitDy=0;entryX=0.5;entryY=0;entryDx=0;entryDy=0;strokeColor=default;align=center;verticalAlign=middle;fontFamily=Helvetica;fontSize=11;fontColor=default;labelBackgroundColor=default;resizable=0;endArrow=blockThin;endFill=1;" edge="1" parent="1" source="j_e9VoBYmgcrXOVCCWzt-168" target="j_e9VoBYmgcrXOVCCWzt-173">
          <mxGeometry relative="1" as="geometry" />
        </mxCell>
        <mxCell id="j_e9VoBYmgcrXOVCCWzt-168" value="" style="ellipse;whiteSpace=wrap;html=1;aspect=fixed;fillColor=none;" vertex="1" parent="1">
          <mxGeometry x="740" y="500" width="20" height="20" as="geometry" />
        </mxCell>
        <mxCell id="j_e9VoBYmgcrXOVCCWzt-169" value="" style="endArrow=none;html=1;rounded=0;entryX=1;entryY=0;entryDx=0;entryDy=0;exitX=0;exitY=1;exitDx=0;exitDy=0;" edge="1" parent="1" source="j_e9VoBYmgcrXOVCCWzt-168" target="j_e9VoBYmgcrXOVCCWzt-168">
          <mxGeometry width="50" height="50" relative="1" as="geometry">
            <mxPoint x="730" y="550" as="sourcePoint" />
            <mxPoint x="780" y="500" as="targetPoint" />
          </mxGeometry>
        </mxCell>
        <mxCell id="j_e9VoBYmgcrXOVCCWzt-170" value="" style="endArrow=none;html=1;rounded=0;entryX=0;entryY=0;entryDx=0;entryDy=0;exitX=1;exitY=1;exitDx=0;exitDy=0;" edge="1" parent="1" source="j_e9VoBYmgcrXOVCCWzt-168" target="j_e9VoBYmgcrXOVCCWzt-168">
          <mxGeometry width="50" height="50" relative="1" as="geometry">
            <mxPoint x="730" y="550" as="sourcePoint" />
            <mxPoint x="780" y="500" as="targetPoint" />
          </mxGeometry>
        </mxCell>
        <mxCell id="j_e9VoBYmgcrXOVCCWzt-171" value="$$h[5]$$" style="text;html=1;align=center;verticalAlign=middle;whiteSpace=wrap;rounded=0;fontFamily=Helvetica;fontSize=11;fontColor=default;labelBackgroundColor=none;resizable=0;" vertex="1" parent="1">
          <mxGeometry x="750" y="495" width="60" height="30" as="geometry" />
        </mxCell>
        <mxCell id="j_e9VoBYmgcrXOVCCWzt-172" value="" style="group" vertex="1" connectable="0" parent="1">
          <mxGeometry x="740" y="540" width="20" height="20" as="geometry" />
        </mxCell>
        <mxCell id="j_e9VoBYmgcrXOVCCWzt-173" value="" style="ellipse;whiteSpace=wrap;html=1;aspect=fixed;fillColor=none;" vertex="1" parent="j_e9VoBYmgcrXOVCCWzt-172">
          <mxGeometry width="20" height="20" as="geometry" />
        </mxCell>
        <mxCell id="j_e9VoBYmgcrXOVCCWzt-174" value="" style="endArrow=none;html=1;rounded=0;" edge="1" parent="j_e9VoBYmgcrXOVCCWzt-172">
          <mxGeometry width="50" height="50" relative="1" as="geometry">
            <mxPoint x="9.920000000000016" y="15" as="sourcePoint" />
            <mxPoint x="9.920000000000016" y="5" as="targetPoint" />
          </mxGeometry>
        </mxCell>
        <mxCell id="j_e9VoBYmgcrXOVCCWzt-175" value="" style="endArrow=none;html=1;rounded=0;" edge="1" parent="j_e9VoBYmgcrXOVCCWzt-172">
          <mxGeometry width="50" height="50" relative="1" as="geometry">
            <mxPoint x="5" y="9.930000000000007" as="sourcePoint" />
            <mxPoint x="15" y="9.930000000000007" as="targetPoint" />
          </mxGeometry>
        </mxCell>
        <mxCell id="j_e9VoBYmgcrXOVCCWzt-176" style="edgeStyle=orthogonalEdgeStyle;shape=connector;rounded=0;orthogonalLoop=1;jettySize=auto;html=1;exitX=1;exitY=0.5;exitDx=0;exitDy=0;entryX=0;entryY=0.5;entryDx=0;entryDy=0;strokeColor=default;align=center;verticalAlign=middle;fontFamily=Helvetica;fontSize=11;fontColor=default;labelBackgroundColor=default;resizable=0;endArrow=blockThin;endFill=1;" edge="1" parent="1" source="j_e9VoBYmgcrXOVCCWzt-140" target="j_e9VoBYmgcrXOVCCWzt-173">
          <mxGeometry relative="1" as="geometry" />
        </mxCell>
        <mxCell id="j_e9VoBYmgcrXOVCCWzt-177" style="edgeStyle=orthogonalEdgeStyle;shape=connector;rounded=0;orthogonalLoop=1;jettySize=auto;html=1;exitX=1;exitY=0.5;exitDx=0;exitDy=0;entryX=0;entryY=0.5;entryDx=0;entryDy=0;strokeColor=default;align=center;verticalAlign=middle;fontFamily=Helvetica;fontSize=11;fontColor=default;labelBackgroundColor=default;resizable=0;endArrow=blockThin;endFill=1;" edge="1" parent="1" source="j_e9VoBYmgcrXOVCCWzt-173" target="j_e9VoBYmgcrXOVCCWzt-155">
          <mxGeometry relative="1" as="geometry" />
        </mxCell>
        <mxCell id="j_e9VoBYmgcrXOVCCWzt-178" style="edgeStyle=orthogonalEdgeStyle;shape=connector;rounded=0;orthogonalLoop=1;jettySize=auto;html=1;entryX=0.5;entryY=0;entryDx=0;entryDy=0;strokeColor=default;align=center;verticalAlign=middle;fontFamily=Helvetica;fontSize=11;fontColor=default;labelBackgroundColor=default;resizable=0;endArrow=blockThin;endFill=1;" edge="1" parent="1" source="j_e9VoBYmgcrXOVCCWzt-179" target="j_e9VoBYmgcrXOVCCWzt-168">
          <mxGeometry relative="1" as="geometry" />
        </mxCell>
        <mxCell id="j_e9VoBYmgcrXOVCCWzt-179" value="" style="shape=waypoint;sketch=0;fillStyle=solid;size=6;pointerEvents=1;points=[];fillColor=none;resizable=0;rotatable=0;perimeter=centerPerimeter;snapToPoint=1;strokeColor=default;strokeWidth=0;align=center;verticalAlign=middle;fontFamily=Helvetica;fontSize=11;fontColor=default;labelBackgroundColor=default;" vertex="1" parent="1">
          <mxGeometry x="740" y="460" width="20" height="20" as="geometry" />
        </mxCell>
        <mxCell id="j_e9VoBYmgcrXOVCCWzt-180" style="edgeStyle=orthogonalEdgeStyle;shape=connector;rounded=0;orthogonalLoop=1;jettySize=auto;html=1;exitX=1;exitY=0.5;exitDx=0;exitDy=0;entryX=0;entryY=0.5;entryDx=0;entryDy=0;strokeColor=default;align=center;verticalAlign=middle;fontFamily=Helvetica;fontSize=11;fontColor=default;labelBackgroundColor=default;resizable=0;endArrow=blockThin;endFill=1;" edge="1" parent="1" source="j_e9VoBYmgcrXOVCCWzt-114" target="j_e9VoBYmgcrXOVCCWzt-140">
          <mxGeometry relative="1" as="geometry" />
        </mxCell>
        <mxCell id="j_e9VoBYmgcrXOVCCWzt-181" value="" style="group" vertex="1" connectable="0" parent="1">
          <mxGeometry x="980" y="540" width="20" height="20" as="geometry" />
        </mxCell>
        <mxCell id="j_e9VoBYmgcrXOVCCWzt-182" style="edgeStyle=orthogonalEdgeStyle;shape=connector;rounded=0;orthogonalLoop=1;jettySize=auto;html=1;exitX=1;exitY=0.5;exitDx=0;exitDy=0;strokeColor=default;align=center;verticalAlign=middle;fontFamily=Helvetica;fontSize=11;fontColor=default;labelBackgroundColor=default;resizable=0;endArrow=blockThin;endFill=1;" edge="1" parent="j_e9VoBYmgcrXOVCCWzt-181" source="j_e9VoBYmgcrXOVCCWzt-183">
          <mxGeometry relative="1" as="geometry">
            <mxPoint x="60" y="10" as="targetPoint" />
          </mxGeometry>
        </mxCell>
        <mxCell id="j_e9VoBYmgcrXOVCCWzt-183" value="" style="ellipse;whiteSpace=wrap;html=1;aspect=fixed;fillColor=none;" vertex="1" parent="j_e9VoBYmgcrXOVCCWzt-181">
          <mxGeometry width="20" height="20" as="geometry" />
        </mxCell>
        <mxCell id="j_e9VoBYmgcrXOVCCWzt-184" value="" style="endArrow=none;html=1;rounded=0;" edge="1" parent="j_e9VoBYmgcrXOVCCWzt-181">
          <mxGeometry width="50" height="50" relative="1" as="geometry">
            <mxPoint x="9.920000000000016" y="15" as="sourcePoint" />
            <mxPoint x="9.920000000000016" y="5" as="targetPoint" />
          </mxGeometry>
        </mxCell>
        <mxCell id="j_e9VoBYmgcrXOVCCWzt-185" value="" style="endArrow=none;html=1;rounded=0;" edge="1" parent="j_e9VoBYmgcrXOVCCWzt-181">
          <mxGeometry width="50" height="50" relative="1" as="geometry">
            <mxPoint x="5" y="9.930000000000007" as="sourcePoint" />
            <mxPoint x="15" y="9.930000000000007" as="targetPoint" />
          </mxGeometry>
        </mxCell>
        <mxCell id="j_e9VoBYmgcrXOVCCWzt-186" style="edgeStyle=orthogonalEdgeStyle;shape=connector;rounded=0;orthogonalLoop=1;jettySize=auto;html=1;exitX=0.5;exitY=1;exitDx=0;exitDy=0;entryX=0.5;entryY=0;entryDx=0;entryDy=0;strokeColor=default;align=center;verticalAlign=middle;fontFamily=Helvetica;fontSize=11;fontColor=default;labelBackgroundColor=default;resizable=0;endArrow=blockThin;endFill=1;" edge="1" parent="1" source="j_e9VoBYmgcrXOVCCWzt-187" target="j_e9VoBYmgcrXOVCCWzt-183">
          <mxGeometry relative="1" as="geometry" />
        </mxCell>
        <mxCell id="j_e9VoBYmgcrXOVCCWzt-187" value="" style="ellipse;whiteSpace=wrap;html=1;aspect=fixed;fillColor=none;" vertex="1" parent="1">
          <mxGeometry x="980" y="500" width="20" height="20" as="geometry" />
        </mxCell>
        <mxCell id="j_e9VoBYmgcrXOVCCWzt-188" value="" style="endArrow=none;html=1;rounded=0;entryX=1;entryY=0;entryDx=0;entryDy=0;exitX=0;exitY=1;exitDx=0;exitDy=0;" edge="1" parent="1" source="j_e9VoBYmgcrXOVCCWzt-187" target="j_e9VoBYmgcrXOVCCWzt-187">
          <mxGeometry width="50" height="50" relative="1" as="geometry">
            <mxPoint x="970" y="550" as="sourcePoint" />
            <mxPoint x="1020" y="500" as="targetPoint" />
          </mxGeometry>
        </mxCell>
        <mxCell id="j_e9VoBYmgcrXOVCCWzt-189" value="" style="endArrow=none;html=1;rounded=0;entryX=0;entryY=0;entryDx=0;entryDy=0;exitX=1;exitY=1;exitDx=0;exitDy=0;" edge="1" parent="1" source="j_e9VoBYmgcrXOVCCWzt-187" target="j_e9VoBYmgcrXOVCCWzt-187">
          <mxGeometry width="50" height="50" relative="1" as="geometry">
            <mxPoint x="970" y="550" as="sourcePoint" />
            <mxPoint x="1020" y="500" as="targetPoint" />
          </mxGeometry>
        </mxCell>
        <mxCell id="j_e9VoBYmgcrXOVCCWzt-190" value="$$h[7]$$" style="text;html=1;align=center;verticalAlign=middle;whiteSpace=wrap;rounded=0;fontFamily=Helvetica;fontSize=11;fontColor=default;labelBackgroundColor=none;resizable=0;" vertex="1" parent="1">
          <mxGeometry x="990" y="495" width="60" height="30" as="geometry" />
        </mxCell>
        <mxCell id="j_e9VoBYmgcrXOVCCWzt-191" style="edgeStyle=orthogonalEdgeStyle;shape=connector;rounded=0;orthogonalLoop=1;jettySize=auto;html=1;exitX=1;exitY=0.5;exitDx=0;exitDy=0;entryX=0;entryY=0.5;entryDx=0;entryDy=0;strokeColor=default;align=center;verticalAlign=middle;fontFamily=Helvetica;fontSize=11;fontColor=default;labelBackgroundColor=default;resizable=0;endArrow=blockThin;endFill=1;" edge="1" parent="1" source="j_e9VoBYmgcrXOVCCWzt-155" target="j_e9VoBYmgcrXOVCCWzt-183">
          <mxGeometry relative="1" as="geometry" />
        </mxCell>
        <mxCell id="yFcrXBDnqZHCQ9-agBT8-2" style="edgeStyle=orthogonalEdgeStyle;shape=connector;rounded=0;orthogonalLoop=1;jettySize=auto;html=1;exitX=1;exitY=0.5;exitDx=0;exitDy=0;strokeColor=default;align=center;verticalAlign=middle;fontFamily=Helvetica;fontSize=11;fontColor=default;labelBackgroundColor=default;resizable=0;endArrow=blockThin;endFill=1;" edge="1" parent="1" source="mwAAPyC5iPkNbUFS9GQT-1">
          <mxGeometry relative="1" as="geometry">
            <mxPoint x="1120" y="550" as="targetPoint" />
          </mxGeometry>
        </mxCell>
        <mxCell id="mwAAPyC5iPkNbUFS9GQT-1" value="$$\downarrow 4$$" style="whiteSpace=wrap;html=1;aspect=fixed;fillColor=none;" vertex="1" parent="1">
          <mxGeometry x="1040" y="530" width="40" height="40" as="geometry" />
        </mxCell>
        <mxCell id="yFcrXBDnqZHCQ9-agBT8-3" value="$$ \text{Rate } 4R$$" style="text;html=1;align=center;verticalAlign=middle;whiteSpace=wrap;rounded=0;fontFamily=Helvetica;fontSize=11;fontColor=default;labelBackgroundColor=none;resizable=1;movable=1;rotatable=1;deletable=1;editable=1;locked=0;connectable=1;" vertex="1" parent="1">
          <mxGeometry x="550" y="570" width="70" height="20" as="geometry" />
        </mxCell>
        <mxCell id="yFcrXBDnqZHCQ9-agBT8-4" value="$$ \text{Rate } R$$" style="text;html=1;align=center;verticalAlign=middle;whiteSpace=wrap;rounded=0;fontFamily=Helvetica;fontSize=11;fontColor=default;labelBackgroundColor=none;resizable=1;movable=1;rotatable=1;deletable=1;editable=1;locked=0;connectable=1;" vertex="1" parent="1">
          <mxGeometry x="1080" y="495" width="70" height="20" as="geometry" />
        </mxCell>
        <mxCell id="yFcrXBDnqZHCQ9-agBT8-29" style="edgeStyle=orthogonalEdgeStyle;shape=connector;rounded=0;orthogonalLoop=1;jettySize=auto;html=1;exitX=1;exitY=0.5;exitDx=0;exitDy=0;entryX=0.5;entryY=0;entryDx=0;entryDy=0;strokeColor=default;align=center;verticalAlign=middle;fontFamily=Helvetica;fontSize=11;fontColor=default;labelBackgroundColor=default;resizable=0;endArrow=blockThin;endFill=1;" edge="1" parent="1" source="yFcrXBDnqZHCQ9-agBT8-7" target="yFcrXBDnqZHCQ9-agBT8-15">
          <mxGeometry relative="1" as="geometry" />
        </mxCell>
        <mxCell id="yFcrXBDnqZHCQ9-agBT8-7" value="$$z^{-1}$$" style="whiteSpace=wrap;html=1;aspect=fixed;fillColor=none;" vertex="1" parent="1">
          <mxGeometry x="330" y="700" width="40" height="40" as="geometry" />
        </mxCell>
        <mxCell id="yFcrXBDnqZHCQ9-agBT8-8" value="" style="group" vertex="1" connectable="0" parent="1">
          <mxGeometry x="400" y="790" width="20" height="20" as="geometry" />
        </mxCell>
        <mxCell id="yFcrXBDnqZHCQ9-agBT8-9" value="" style="ellipse;whiteSpace=wrap;html=1;aspect=fixed;fillColor=none;" vertex="1" parent="yFcrXBDnqZHCQ9-agBT8-8">
          <mxGeometry width="20" height="20" as="geometry" />
        </mxCell>
        <mxCell id="yFcrXBDnqZHCQ9-agBT8-10" value="" style="endArrow=none;html=1;rounded=0;" edge="1" parent="yFcrXBDnqZHCQ9-agBT8-8">
          <mxGeometry width="50" height="50" relative="1" as="geometry">
            <mxPoint x="9.920000000000016" y="15" as="sourcePoint" />
            <mxPoint x="9.920000000000016" y="5" as="targetPoint" />
          </mxGeometry>
        </mxCell>
        <mxCell id="yFcrXBDnqZHCQ9-agBT8-11" value="" style="endArrow=none;html=1;rounded=0;" edge="1" parent="yFcrXBDnqZHCQ9-agBT8-8">
          <mxGeometry width="50" height="50" relative="1" as="geometry">
            <mxPoint x="5" y="9.930000000000007" as="sourcePoint" />
            <mxPoint x="15" y="9.930000000000007" as="targetPoint" />
          </mxGeometry>
        </mxCell>
        <mxCell id="yFcrXBDnqZHCQ9-agBT8-14" style="edgeStyle=orthogonalEdgeStyle;shape=connector;rounded=0;orthogonalLoop=1;jettySize=auto;html=1;exitX=0.5;exitY=1;exitDx=0;exitDy=0;entryX=0.5;entryY=0;entryDx=0;entryDy=0;strokeColor=default;align=center;verticalAlign=middle;fontFamily=Helvetica;fontSize=11;fontColor=default;labelBackgroundColor=default;resizable=0;endArrow=blockThin;endFill=1;" edge="1" parent="1" source="yFcrXBDnqZHCQ9-agBT8-15" target="yFcrXBDnqZHCQ9-agBT8-9">
          <mxGeometry relative="1" as="geometry" />
        </mxCell>
        <mxCell id="yFcrXBDnqZHCQ9-agBT8-15" value="" style="ellipse;whiteSpace=wrap;html=1;aspect=fixed;fillColor=none;" vertex="1" parent="1">
          <mxGeometry x="400" y="750" width="20" height="20" as="geometry" />
        </mxCell>
        <mxCell id="yFcrXBDnqZHCQ9-agBT8-16" value="" style="endArrow=none;html=1;rounded=0;entryX=1;entryY=0;entryDx=0;entryDy=0;exitX=0;exitY=1;exitDx=0;exitDy=0;" edge="1" parent="1" source="yFcrXBDnqZHCQ9-agBT8-15" target="yFcrXBDnqZHCQ9-agBT8-15">
          <mxGeometry width="50" height="50" relative="1" as="geometry">
            <mxPoint x="390" y="800" as="sourcePoint" />
            <mxPoint x="440" y="750" as="targetPoint" />
          </mxGeometry>
        </mxCell>
        <mxCell id="yFcrXBDnqZHCQ9-agBT8-17" value="" style="endArrow=none;html=1;rounded=0;entryX=0;entryY=0;entryDx=0;entryDy=0;exitX=1;exitY=1;exitDx=0;exitDy=0;" edge="1" parent="1" source="yFcrXBDnqZHCQ9-agBT8-15" target="yFcrXBDnqZHCQ9-agBT8-15">
          <mxGeometry width="50" height="50" relative="1" as="geometry">
            <mxPoint x="390" y="800" as="sourcePoint" />
            <mxPoint x="440" y="750" as="targetPoint" />
          </mxGeometry>
        </mxCell>
        <mxCell id="yFcrXBDnqZHCQ9-agBT8-18" value="$$h[4]$$" style="text;html=1;align=center;verticalAlign=middle;whiteSpace=wrap;rounded=0;fontFamily=Helvetica;fontSize=11;fontColor=default;labelBackgroundColor=none;resizable=0;fillColor=none;" vertex="1" parent="1">
          <mxGeometry x="410" y="745" width="60" height="30" as="geometry" />
        </mxCell>
        <mxCell id="yFcrXBDnqZHCQ9-agBT8-19" style="edgeStyle=orthogonalEdgeStyle;shape=connector;rounded=0;orthogonalLoop=1;jettySize=auto;html=1;exitX=0.5;exitY=1;exitDx=0;exitDy=0;entryX=0;entryY=0.5;entryDx=0;entryDy=0;strokeColor=default;align=center;verticalAlign=middle;fontFamily=Helvetica;fontSize=11;fontColor=default;labelBackgroundColor=default;resizable=0;endArrow=blockThin;endFill=1;" edge="1" parent="1" source="yFcrXBDnqZHCQ9-agBT8-20" target="yFcrXBDnqZHCQ9-agBT8-9">
          <mxGeometry relative="1" as="geometry" />
        </mxCell>
        <mxCell id="yFcrXBDnqZHCQ9-agBT8-20" value="" style="ellipse;whiteSpace=wrap;html=1;aspect=fixed;fillColor=none;" vertex="1" parent="1">
          <mxGeometry x="280" y="750" width="20" height="20" as="geometry" />
        </mxCell>
        <mxCell id="yFcrXBDnqZHCQ9-agBT8-21" value="" style="endArrow=none;html=1;rounded=0;entryX=1;entryY=0;entryDx=0;entryDy=0;exitX=0;exitY=1;exitDx=0;exitDy=0;" edge="1" parent="1" source="yFcrXBDnqZHCQ9-agBT8-20" target="yFcrXBDnqZHCQ9-agBT8-20">
          <mxGeometry width="50" height="50" relative="1" as="geometry">
            <mxPoint x="270" y="800" as="sourcePoint" />
            <mxPoint x="320" y="750" as="targetPoint" />
          </mxGeometry>
        </mxCell>
        <mxCell id="yFcrXBDnqZHCQ9-agBT8-22" value="" style="endArrow=none;html=1;rounded=0;entryX=0;entryY=0;entryDx=0;entryDy=0;exitX=1;exitY=1;exitDx=0;exitDy=0;" edge="1" parent="1" source="yFcrXBDnqZHCQ9-agBT8-20" target="yFcrXBDnqZHCQ9-agBT8-20">
          <mxGeometry width="50" height="50" relative="1" as="geometry">
            <mxPoint x="270" y="800" as="sourcePoint" />
            <mxPoint x="320" y="750" as="targetPoint" />
          </mxGeometry>
        </mxCell>
        <mxCell id="yFcrXBDnqZHCQ9-agBT8-23" value="$$h[0]$$" style="text;html=1;align=center;verticalAlign=middle;whiteSpace=wrap;rounded=0;fontFamily=Helvetica;fontSize=11;fontColor=default;labelBackgroundColor=none;resizable=0;fillColor=none;" vertex="1" parent="1">
          <mxGeometry x="290" y="745" width="60" height="30" as="geometry" />
        </mxCell>
        <mxCell id="yFcrXBDnqZHCQ9-agBT8-24" style="edgeStyle=orthogonalEdgeStyle;shape=connector;rounded=0;orthogonalLoop=1;jettySize=auto;html=1;entryX=0;entryY=0.5;entryDx=0;entryDy=0;strokeColor=default;align=center;verticalAlign=middle;fontFamily=Helvetica;fontSize=11;fontColor=default;labelBackgroundColor=default;resizable=0;endArrow=blockThin;endFill=1;" edge="1" parent="1" source="yFcrXBDnqZHCQ9-agBT8-27" target="yFcrXBDnqZHCQ9-agBT8-7">
          <mxGeometry relative="1" as="geometry" />
        </mxCell>
        <mxCell id="yFcrXBDnqZHCQ9-agBT8-25" style="edgeStyle=orthogonalEdgeStyle;shape=connector;rounded=0;orthogonalLoop=1;jettySize=auto;html=1;entryX=0.5;entryY=0;entryDx=0;entryDy=0;strokeColor=default;align=center;verticalAlign=middle;fontFamily=Helvetica;fontSize=11;fontColor=default;labelBackgroundColor=default;resizable=0;endArrow=blockThin;endFill=1;" edge="1" parent="1" source="yFcrXBDnqZHCQ9-agBT8-26" target="yFcrXBDnqZHCQ9-agBT8-20">
          <mxGeometry relative="1" as="geometry" />
        </mxCell>
        <mxCell id="yFcrXBDnqZHCQ9-agBT8-26" value="" style="shape=waypoint;sketch=0;fillStyle=solid;size=6;pointerEvents=1;points=[];fillColor=none;resizable=0;rotatable=0;perimeter=centerPerimeter;snapToPoint=1;strokeColor=default;strokeWidth=0;align=center;verticalAlign=middle;fontFamily=Helvetica;fontSize=11;fontColor=default;labelBackgroundColor=default;" vertex="1" parent="1">
          <mxGeometry x="280" y="710" width="20" height="20" as="geometry" />
        </mxCell>
        <mxCell id="yFcrXBDnqZHCQ9-agBT8-27" value="" style="shape=waypoint;sketch=0;fillStyle=solid;size=6;pointerEvents=1;points=[];fillColor=none;resizable=0;rotatable=0;perimeter=centerPerimeter;snapToPoint=1;strokeColor=default;strokeWidth=0;align=center;verticalAlign=middle;fontFamily=Helvetica;fontSize=11;fontColor=default;labelBackgroundColor=default;" vertex="1" parent="1">
          <mxGeometry x="240" y="710" width="20" height="20" as="geometry" />
        </mxCell>
        <mxCell id="yFcrXBDnqZHCQ9-agBT8-30" style="edgeStyle=orthogonalEdgeStyle;shape=connector;rounded=0;orthogonalLoop=1;jettySize=auto;html=1;exitX=1;exitY=0.5;exitDx=0;exitDy=0;entryX=0.5;entryY=0;entryDx=0;entryDy=0;strokeColor=default;align=center;verticalAlign=middle;fontFamily=Helvetica;fontSize=11;fontColor=default;labelBackgroundColor=default;resizable=0;endArrow=blockThin;endFill=1;" edge="1" parent="1" source="yFcrXBDnqZHCQ9-agBT8-31" target="yFcrXBDnqZHCQ9-agBT8-37">
          <mxGeometry relative="1" as="geometry" />
        </mxCell>
        <mxCell id="yFcrXBDnqZHCQ9-agBT8-31" value="$$z^{-1}$$" style="whiteSpace=wrap;html=1;aspect=fixed;fillColor=none;" vertex="1" parent="1">
          <mxGeometry x="330" y="820" width="40" height="40" as="geometry" />
        </mxCell>
        <mxCell id="yFcrXBDnqZHCQ9-agBT8-32" value="" style="group" vertex="1" connectable="0" parent="1">
          <mxGeometry x="400" y="910" width="20" height="20" as="geometry" />
        </mxCell>
        <mxCell id="yFcrXBDnqZHCQ9-agBT8-33" value="" style="ellipse;whiteSpace=wrap;html=1;aspect=fixed;fillColor=none;" vertex="1" parent="yFcrXBDnqZHCQ9-agBT8-32">
          <mxGeometry width="20" height="20" as="geometry" />
        </mxCell>
        <mxCell id="yFcrXBDnqZHCQ9-agBT8-34" value="" style="endArrow=none;html=1;rounded=0;" edge="1" parent="yFcrXBDnqZHCQ9-agBT8-32">
          <mxGeometry width="50" height="50" relative="1" as="geometry">
            <mxPoint x="9.920000000000016" y="15" as="sourcePoint" />
            <mxPoint x="9.920000000000016" y="5" as="targetPoint" />
          </mxGeometry>
        </mxCell>
        <mxCell id="yFcrXBDnqZHCQ9-agBT8-35" value="" style="endArrow=none;html=1;rounded=0;" edge="1" parent="yFcrXBDnqZHCQ9-agBT8-32">
          <mxGeometry width="50" height="50" relative="1" as="geometry">
            <mxPoint x="5" y="9.930000000000007" as="sourcePoint" />
            <mxPoint x="15" y="9.930000000000007" as="targetPoint" />
          </mxGeometry>
        </mxCell>
        <mxCell id="yFcrXBDnqZHCQ9-agBT8-36" style="edgeStyle=orthogonalEdgeStyle;shape=connector;rounded=0;orthogonalLoop=1;jettySize=auto;html=1;exitX=0.5;exitY=1;exitDx=0;exitDy=0;entryX=0.5;entryY=0;entryDx=0;entryDy=0;strokeColor=default;align=center;verticalAlign=middle;fontFamily=Helvetica;fontSize=11;fontColor=default;labelBackgroundColor=default;resizable=0;endArrow=blockThin;endFill=1;" edge="1" parent="1" source="yFcrXBDnqZHCQ9-agBT8-37" target="yFcrXBDnqZHCQ9-agBT8-33">
          <mxGeometry relative="1" as="geometry" />
        </mxCell>
        <mxCell id="yFcrXBDnqZHCQ9-agBT8-37" value="" style="ellipse;whiteSpace=wrap;html=1;aspect=fixed;fillColor=none;" vertex="1" parent="1">
          <mxGeometry x="400" y="870" width="20" height="20" as="geometry" />
        </mxCell>
        <mxCell id="yFcrXBDnqZHCQ9-agBT8-38" value="" style="endArrow=none;html=1;rounded=0;entryX=1;entryY=0;entryDx=0;entryDy=0;exitX=0;exitY=1;exitDx=0;exitDy=0;" edge="1" parent="1" source="yFcrXBDnqZHCQ9-agBT8-37" target="yFcrXBDnqZHCQ9-agBT8-37">
          <mxGeometry width="50" height="50" relative="1" as="geometry">
            <mxPoint x="390" y="920" as="sourcePoint" />
            <mxPoint x="440" y="870" as="targetPoint" />
          </mxGeometry>
        </mxCell>
        <mxCell id="yFcrXBDnqZHCQ9-agBT8-39" value="" style="endArrow=none;html=1;rounded=0;entryX=0;entryY=0;entryDx=0;entryDy=0;exitX=1;exitY=1;exitDx=0;exitDy=0;" edge="1" parent="1" source="yFcrXBDnqZHCQ9-agBT8-37" target="yFcrXBDnqZHCQ9-agBT8-37">
          <mxGeometry width="50" height="50" relative="1" as="geometry">
            <mxPoint x="390" y="920" as="sourcePoint" />
            <mxPoint x="440" y="870" as="targetPoint" />
          </mxGeometry>
        </mxCell>
        <mxCell id="yFcrXBDnqZHCQ9-agBT8-40" value="$$h[5]$$" style="text;html=1;align=center;verticalAlign=middle;whiteSpace=wrap;rounded=0;fontFamily=Helvetica;fontSize=11;fontColor=default;labelBackgroundColor=none;resizable=0;fillColor=none;" vertex="1" parent="1">
          <mxGeometry x="410" y="865" width="60" height="30" as="geometry" />
        </mxCell>
        <mxCell id="yFcrXBDnqZHCQ9-agBT8-41" style="edgeStyle=orthogonalEdgeStyle;shape=connector;rounded=0;orthogonalLoop=1;jettySize=auto;html=1;exitX=0.5;exitY=1;exitDx=0;exitDy=0;entryX=0;entryY=0.5;entryDx=0;entryDy=0;strokeColor=default;align=center;verticalAlign=middle;fontFamily=Helvetica;fontSize=11;fontColor=default;labelBackgroundColor=default;resizable=0;endArrow=blockThin;endFill=1;" edge="1" parent="1" source="yFcrXBDnqZHCQ9-agBT8-42" target="yFcrXBDnqZHCQ9-agBT8-33">
          <mxGeometry relative="1" as="geometry" />
        </mxCell>
        <mxCell id="yFcrXBDnqZHCQ9-agBT8-42" value="" style="ellipse;whiteSpace=wrap;html=1;aspect=fixed;fillColor=none;" vertex="1" parent="1">
          <mxGeometry x="280" y="870" width="20" height="20" as="geometry" />
        </mxCell>
        <mxCell id="yFcrXBDnqZHCQ9-agBT8-43" value="" style="endArrow=none;html=1;rounded=0;entryX=1;entryY=0;entryDx=0;entryDy=0;exitX=0;exitY=1;exitDx=0;exitDy=0;" edge="1" parent="1" source="yFcrXBDnqZHCQ9-agBT8-42" target="yFcrXBDnqZHCQ9-agBT8-42">
          <mxGeometry width="50" height="50" relative="1" as="geometry">
            <mxPoint x="270" y="920" as="sourcePoint" />
            <mxPoint x="320" y="870" as="targetPoint" />
          </mxGeometry>
        </mxCell>
        <mxCell id="yFcrXBDnqZHCQ9-agBT8-44" value="" style="endArrow=none;html=1;rounded=0;entryX=0;entryY=0;entryDx=0;entryDy=0;exitX=1;exitY=1;exitDx=0;exitDy=0;" edge="1" parent="1" source="yFcrXBDnqZHCQ9-agBT8-42" target="yFcrXBDnqZHCQ9-agBT8-42">
          <mxGeometry width="50" height="50" relative="1" as="geometry">
            <mxPoint x="270" y="920" as="sourcePoint" />
            <mxPoint x="320" y="870" as="targetPoint" />
          </mxGeometry>
        </mxCell>
        <mxCell id="yFcrXBDnqZHCQ9-agBT8-45" value="$$h[1]$$" style="text;html=1;align=center;verticalAlign=middle;whiteSpace=wrap;rounded=0;fontFamily=Helvetica;fontSize=11;fontColor=default;labelBackgroundColor=none;resizable=0;fillColor=none;" vertex="1" parent="1">
          <mxGeometry x="290" y="865" width="60" height="30" as="geometry" />
        </mxCell>
        <mxCell id="yFcrXBDnqZHCQ9-agBT8-46" style="edgeStyle=orthogonalEdgeStyle;shape=connector;rounded=0;orthogonalLoop=1;jettySize=auto;html=1;entryX=0;entryY=0.5;entryDx=0;entryDy=0;strokeColor=default;align=center;verticalAlign=middle;fontFamily=Helvetica;fontSize=11;fontColor=default;labelBackgroundColor=default;resizable=0;endArrow=blockThin;endFill=1;" edge="1" parent="1" source="yFcrXBDnqZHCQ9-agBT8-49" target="yFcrXBDnqZHCQ9-agBT8-31">
          <mxGeometry relative="1" as="geometry" />
        </mxCell>
        <mxCell id="yFcrXBDnqZHCQ9-agBT8-47" style="edgeStyle=orthogonalEdgeStyle;shape=connector;rounded=0;orthogonalLoop=1;jettySize=auto;html=1;entryX=0.5;entryY=0;entryDx=0;entryDy=0;strokeColor=default;align=center;verticalAlign=middle;fontFamily=Helvetica;fontSize=11;fontColor=default;labelBackgroundColor=default;resizable=0;endArrow=blockThin;endFill=1;" edge="1" parent="1" source="yFcrXBDnqZHCQ9-agBT8-48" target="yFcrXBDnqZHCQ9-agBT8-42">
          <mxGeometry relative="1" as="geometry" />
        </mxCell>
        <mxCell id="yFcrXBDnqZHCQ9-agBT8-48" value="" style="shape=waypoint;sketch=0;fillStyle=solid;size=6;pointerEvents=1;points=[];fillColor=none;resizable=0;rotatable=0;perimeter=centerPerimeter;snapToPoint=1;strokeColor=default;strokeWidth=0;align=center;verticalAlign=middle;fontFamily=Helvetica;fontSize=11;fontColor=default;labelBackgroundColor=default;" vertex="1" parent="1">
          <mxGeometry x="280" y="830" width="20" height="20" as="geometry" />
        </mxCell>
        <mxCell id="yFcrXBDnqZHCQ9-agBT8-49" value="" style="shape=waypoint;sketch=0;fillStyle=solid;size=6;pointerEvents=1;points=[];fillColor=none;resizable=0;rotatable=0;perimeter=centerPerimeter;snapToPoint=1;strokeColor=default;strokeWidth=0;align=center;verticalAlign=middle;fontFamily=Helvetica;fontSize=11;fontColor=default;labelBackgroundColor=default;" vertex="1" parent="1">
          <mxGeometry x="240" y="830" width="20" height="20" as="geometry" />
        </mxCell>
        <mxCell id="yFcrXBDnqZHCQ9-agBT8-50" style="edgeStyle=orthogonalEdgeStyle;shape=connector;rounded=0;orthogonalLoop=1;jettySize=auto;html=1;exitX=1;exitY=0.5;exitDx=0;exitDy=0;entryX=0.5;entryY=0;entryDx=0;entryDy=0;strokeColor=default;align=center;verticalAlign=middle;fontFamily=Helvetica;fontSize=11;fontColor=default;labelBackgroundColor=default;resizable=0;endArrow=blockThin;endFill=1;" edge="1" parent="1" source="yFcrXBDnqZHCQ9-agBT8-51" target="yFcrXBDnqZHCQ9-agBT8-57">
          <mxGeometry relative="1" as="geometry" />
        </mxCell>
        <mxCell id="yFcrXBDnqZHCQ9-agBT8-51" value="$$z^{-1}$$" style="whiteSpace=wrap;html=1;aspect=fixed;fillColor=none;" vertex="1" parent="1">
          <mxGeometry x="330" y="940" width="40" height="40" as="geometry" />
        </mxCell>
        <mxCell id="yFcrXBDnqZHCQ9-agBT8-52" value="" style="group" vertex="1" connectable="0" parent="1">
          <mxGeometry x="400" y="1030" width="20" height="20" as="geometry" />
        </mxCell>
        <mxCell id="yFcrXBDnqZHCQ9-agBT8-53" value="" style="ellipse;whiteSpace=wrap;html=1;aspect=fixed;fillColor=none;" vertex="1" parent="yFcrXBDnqZHCQ9-agBT8-52">
          <mxGeometry width="20" height="20" as="geometry" />
        </mxCell>
        <mxCell id="yFcrXBDnqZHCQ9-agBT8-54" value="" style="endArrow=none;html=1;rounded=0;" edge="1" parent="yFcrXBDnqZHCQ9-agBT8-52">
          <mxGeometry width="50" height="50" relative="1" as="geometry">
            <mxPoint x="9.920000000000016" y="15" as="sourcePoint" />
            <mxPoint x="9.920000000000016" y="5" as="targetPoint" />
          </mxGeometry>
        </mxCell>
        <mxCell id="yFcrXBDnqZHCQ9-agBT8-55" value="" style="endArrow=none;html=1;rounded=0;" edge="1" parent="yFcrXBDnqZHCQ9-agBT8-52">
          <mxGeometry width="50" height="50" relative="1" as="geometry">
            <mxPoint x="5" y="9.930000000000007" as="sourcePoint" />
            <mxPoint x="15" y="9.930000000000007" as="targetPoint" />
          </mxGeometry>
        </mxCell>
        <mxCell id="yFcrXBDnqZHCQ9-agBT8-56" style="edgeStyle=orthogonalEdgeStyle;shape=connector;rounded=0;orthogonalLoop=1;jettySize=auto;html=1;exitX=0.5;exitY=1;exitDx=0;exitDy=0;entryX=0.5;entryY=0;entryDx=0;entryDy=0;strokeColor=default;align=center;verticalAlign=middle;fontFamily=Helvetica;fontSize=11;fontColor=default;labelBackgroundColor=default;resizable=0;endArrow=blockThin;endFill=1;" edge="1" parent="1" source="yFcrXBDnqZHCQ9-agBT8-57" target="yFcrXBDnqZHCQ9-agBT8-53">
          <mxGeometry relative="1" as="geometry" />
        </mxCell>
        <mxCell id="yFcrXBDnqZHCQ9-agBT8-57" value="" style="ellipse;whiteSpace=wrap;html=1;aspect=fixed;fillColor=none;" vertex="1" parent="1">
          <mxGeometry x="400" y="990" width="20" height="20" as="geometry" />
        </mxCell>
        <mxCell id="yFcrXBDnqZHCQ9-agBT8-58" value="" style="endArrow=none;html=1;rounded=0;entryX=1;entryY=0;entryDx=0;entryDy=0;exitX=0;exitY=1;exitDx=0;exitDy=0;" edge="1" parent="1" source="yFcrXBDnqZHCQ9-agBT8-57" target="yFcrXBDnqZHCQ9-agBT8-57">
          <mxGeometry width="50" height="50" relative="1" as="geometry">
            <mxPoint x="390" y="1040" as="sourcePoint" />
            <mxPoint x="440" y="990" as="targetPoint" />
          </mxGeometry>
        </mxCell>
        <mxCell id="yFcrXBDnqZHCQ9-agBT8-59" value="" style="endArrow=none;html=1;rounded=0;entryX=0;entryY=0;entryDx=0;entryDy=0;exitX=1;exitY=1;exitDx=0;exitDy=0;" edge="1" parent="1" source="yFcrXBDnqZHCQ9-agBT8-57" target="yFcrXBDnqZHCQ9-agBT8-57">
          <mxGeometry width="50" height="50" relative="1" as="geometry">
            <mxPoint x="390" y="1040" as="sourcePoint" />
            <mxPoint x="440" y="990" as="targetPoint" />
          </mxGeometry>
        </mxCell>
        <mxCell id="yFcrXBDnqZHCQ9-agBT8-60" value="$$h[6]$$" style="text;html=1;align=center;verticalAlign=middle;whiteSpace=wrap;rounded=0;fontFamily=Helvetica;fontSize=11;fontColor=default;labelBackgroundColor=none;resizable=0;fillColor=none;" vertex="1" parent="1">
          <mxGeometry x="410" y="985" width="60" height="30" as="geometry" />
        </mxCell>
        <mxCell id="yFcrXBDnqZHCQ9-agBT8-61" style="edgeStyle=orthogonalEdgeStyle;shape=connector;rounded=0;orthogonalLoop=1;jettySize=auto;html=1;exitX=0.5;exitY=1;exitDx=0;exitDy=0;entryX=0;entryY=0.5;entryDx=0;entryDy=0;strokeColor=default;align=center;verticalAlign=middle;fontFamily=Helvetica;fontSize=11;fontColor=default;labelBackgroundColor=default;resizable=0;endArrow=blockThin;endFill=1;" edge="1" parent="1" source="yFcrXBDnqZHCQ9-agBT8-62" target="yFcrXBDnqZHCQ9-agBT8-53">
          <mxGeometry relative="1" as="geometry" />
        </mxCell>
        <mxCell id="yFcrXBDnqZHCQ9-agBT8-62" value="" style="ellipse;whiteSpace=wrap;html=1;aspect=fixed;fillColor=none;" vertex="1" parent="1">
          <mxGeometry x="280" y="990" width="20" height="20" as="geometry" />
        </mxCell>
        <mxCell id="yFcrXBDnqZHCQ9-agBT8-63" value="" style="endArrow=none;html=1;rounded=0;entryX=1;entryY=0;entryDx=0;entryDy=0;exitX=0;exitY=1;exitDx=0;exitDy=0;" edge="1" parent="1" source="yFcrXBDnqZHCQ9-agBT8-62" target="yFcrXBDnqZHCQ9-agBT8-62">
          <mxGeometry width="50" height="50" relative="1" as="geometry">
            <mxPoint x="270" y="1040" as="sourcePoint" />
            <mxPoint x="320" y="990" as="targetPoint" />
          </mxGeometry>
        </mxCell>
        <mxCell id="yFcrXBDnqZHCQ9-agBT8-64" value="" style="endArrow=none;html=1;rounded=0;entryX=0;entryY=0;entryDx=0;entryDy=0;exitX=1;exitY=1;exitDx=0;exitDy=0;" edge="1" parent="1" source="yFcrXBDnqZHCQ9-agBT8-62" target="yFcrXBDnqZHCQ9-agBT8-62">
          <mxGeometry width="50" height="50" relative="1" as="geometry">
            <mxPoint x="270" y="1040" as="sourcePoint" />
            <mxPoint x="320" y="990" as="targetPoint" />
          </mxGeometry>
        </mxCell>
        <mxCell id="yFcrXBDnqZHCQ9-agBT8-65" value="$$h[2]$$" style="text;html=1;align=center;verticalAlign=middle;whiteSpace=wrap;rounded=0;fontFamily=Helvetica;fontSize=11;fontColor=default;labelBackgroundColor=none;resizable=0;fillColor=none;" vertex="1" parent="1">
          <mxGeometry x="290" y="985" width="60" height="30" as="geometry" />
        </mxCell>
        <mxCell id="yFcrXBDnqZHCQ9-agBT8-66" style="edgeStyle=orthogonalEdgeStyle;shape=connector;rounded=0;orthogonalLoop=1;jettySize=auto;html=1;entryX=0;entryY=0.5;entryDx=0;entryDy=0;strokeColor=default;align=center;verticalAlign=middle;fontFamily=Helvetica;fontSize=11;fontColor=default;labelBackgroundColor=default;resizable=0;endArrow=blockThin;endFill=1;" edge="1" parent="1" source="yFcrXBDnqZHCQ9-agBT8-69" target="yFcrXBDnqZHCQ9-agBT8-51">
          <mxGeometry relative="1" as="geometry" />
        </mxCell>
        <mxCell id="yFcrXBDnqZHCQ9-agBT8-67" style="edgeStyle=orthogonalEdgeStyle;shape=connector;rounded=0;orthogonalLoop=1;jettySize=auto;html=1;entryX=0.5;entryY=0;entryDx=0;entryDy=0;strokeColor=default;align=center;verticalAlign=middle;fontFamily=Helvetica;fontSize=11;fontColor=default;labelBackgroundColor=default;resizable=0;endArrow=blockThin;endFill=1;" edge="1" parent="1" source="yFcrXBDnqZHCQ9-agBT8-68" target="yFcrXBDnqZHCQ9-agBT8-62">
          <mxGeometry relative="1" as="geometry" />
        </mxCell>
        <mxCell id="yFcrXBDnqZHCQ9-agBT8-68" value="" style="shape=waypoint;sketch=0;fillStyle=solid;size=6;pointerEvents=1;points=[];fillColor=none;resizable=0;rotatable=0;perimeter=centerPerimeter;snapToPoint=1;strokeColor=default;strokeWidth=0;align=center;verticalAlign=middle;fontFamily=Helvetica;fontSize=11;fontColor=default;labelBackgroundColor=default;" vertex="1" parent="1">
          <mxGeometry x="280" y="950" width="20" height="20" as="geometry" />
        </mxCell>
        <mxCell id="yFcrXBDnqZHCQ9-agBT8-69" value="" style="shape=waypoint;sketch=0;fillStyle=solid;size=6;pointerEvents=1;points=[];fillColor=none;resizable=0;rotatable=0;perimeter=centerPerimeter;snapToPoint=1;strokeColor=default;strokeWidth=0;align=center;verticalAlign=middle;fontFamily=Helvetica;fontSize=11;fontColor=default;labelBackgroundColor=default;" vertex="1" parent="1">
          <mxGeometry x="240" y="950" width="20" height="20" as="geometry" />
        </mxCell>
        <mxCell id="yFcrXBDnqZHCQ9-agBT8-70" style="edgeStyle=orthogonalEdgeStyle;shape=connector;rounded=0;orthogonalLoop=1;jettySize=auto;html=1;exitX=1;exitY=0.5;exitDx=0;exitDy=0;entryX=0.5;entryY=0;entryDx=0;entryDy=0;strokeColor=default;align=center;verticalAlign=middle;fontFamily=Helvetica;fontSize=11;fontColor=default;labelBackgroundColor=default;resizable=0;endArrow=blockThin;endFill=1;" edge="1" parent="1" source="yFcrXBDnqZHCQ9-agBT8-71" target="yFcrXBDnqZHCQ9-agBT8-77">
          <mxGeometry relative="1" as="geometry" />
        </mxCell>
        <mxCell id="yFcrXBDnqZHCQ9-agBT8-71" value="$$z^{-1}$$" style="whiteSpace=wrap;html=1;aspect=fixed;fillColor=none;" vertex="1" parent="1">
          <mxGeometry x="330" y="1060" width="40" height="40" as="geometry" />
        </mxCell>
        <mxCell id="yFcrXBDnqZHCQ9-agBT8-72" value="" style="group" vertex="1" connectable="0" parent="1">
          <mxGeometry x="400" y="1150" width="20" height="20" as="geometry" />
        </mxCell>
        <mxCell id="yFcrXBDnqZHCQ9-agBT8-73" value="" style="ellipse;whiteSpace=wrap;html=1;aspect=fixed;fillColor=none;" vertex="1" parent="yFcrXBDnqZHCQ9-agBT8-72">
          <mxGeometry width="20" height="20" as="geometry" />
        </mxCell>
        <mxCell id="yFcrXBDnqZHCQ9-agBT8-74" value="" style="endArrow=none;html=1;rounded=0;" edge="1" parent="yFcrXBDnqZHCQ9-agBT8-72">
          <mxGeometry width="50" height="50" relative="1" as="geometry">
            <mxPoint x="9.920000000000016" y="15" as="sourcePoint" />
            <mxPoint x="9.920000000000016" y="5" as="targetPoint" />
          </mxGeometry>
        </mxCell>
        <mxCell id="yFcrXBDnqZHCQ9-agBT8-75" value="" style="endArrow=none;html=1;rounded=0;" edge="1" parent="yFcrXBDnqZHCQ9-agBT8-72">
          <mxGeometry width="50" height="50" relative="1" as="geometry">
            <mxPoint x="5" y="9.930000000000007" as="sourcePoint" />
            <mxPoint x="15" y="9.930000000000007" as="targetPoint" />
          </mxGeometry>
        </mxCell>
        <mxCell id="yFcrXBDnqZHCQ9-agBT8-76" style="edgeStyle=orthogonalEdgeStyle;shape=connector;rounded=0;orthogonalLoop=1;jettySize=auto;html=1;exitX=0.5;exitY=1;exitDx=0;exitDy=0;entryX=0.5;entryY=0;entryDx=0;entryDy=0;strokeColor=default;align=center;verticalAlign=middle;fontFamily=Helvetica;fontSize=11;fontColor=default;labelBackgroundColor=default;resizable=0;endArrow=blockThin;endFill=1;" edge="1" parent="1" source="yFcrXBDnqZHCQ9-agBT8-77" target="yFcrXBDnqZHCQ9-agBT8-73">
          <mxGeometry relative="1" as="geometry" />
        </mxCell>
        <mxCell id="yFcrXBDnqZHCQ9-agBT8-77" value="" style="ellipse;whiteSpace=wrap;html=1;aspect=fixed;fillColor=none;" vertex="1" parent="1">
          <mxGeometry x="400" y="1110" width="20" height="20" as="geometry" />
        </mxCell>
        <mxCell id="yFcrXBDnqZHCQ9-agBT8-78" value="" style="endArrow=none;html=1;rounded=0;entryX=1;entryY=0;entryDx=0;entryDy=0;exitX=0;exitY=1;exitDx=0;exitDy=0;" edge="1" parent="1" source="yFcrXBDnqZHCQ9-agBT8-77" target="yFcrXBDnqZHCQ9-agBT8-77">
          <mxGeometry width="50" height="50" relative="1" as="geometry">
            <mxPoint x="390" y="1160" as="sourcePoint" />
            <mxPoint x="440" y="1110" as="targetPoint" />
          </mxGeometry>
        </mxCell>
        <mxCell id="yFcrXBDnqZHCQ9-agBT8-79" value="" style="endArrow=none;html=1;rounded=0;entryX=0;entryY=0;entryDx=0;entryDy=0;exitX=1;exitY=1;exitDx=0;exitDy=0;" edge="1" parent="1" source="yFcrXBDnqZHCQ9-agBT8-77" target="yFcrXBDnqZHCQ9-agBT8-77">
          <mxGeometry width="50" height="50" relative="1" as="geometry">
            <mxPoint x="390" y="1160" as="sourcePoint" />
            <mxPoint x="440" y="1110" as="targetPoint" />
          </mxGeometry>
        </mxCell>
        <mxCell id="yFcrXBDnqZHCQ9-agBT8-80" value="$$h[7]$$" style="text;html=1;align=center;verticalAlign=middle;whiteSpace=wrap;rounded=0;fontFamily=Helvetica;fontSize=11;fontColor=default;labelBackgroundColor=none;resizable=0;fillColor=none;" vertex="1" parent="1">
          <mxGeometry x="410" y="1105" width="60" height="30" as="geometry" />
        </mxCell>
        <mxCell id="yFcrXBDnqZHCQ9-agBT8-81" style="edgeStyle=orthogonalEdgeStyle;shape=connector;rounded=0;orthogonalLoop=1;jettySize=auto;html=1;exitX=0.5;exitY=1;exitDx=0;exitDy=0;entryX=0;entryY=0.5;entryDx=0;entryDy=0;strokeColor=default;align=center;verticalAlign=middle;fontFamily=Helvetica;fontSize=11;fontColor=default;labelBackgroundColor=default;resizable=0;endArrow=blockThin;endFill=1;" edge="1" parent="1" source="yFcrXBDnqZHCQ9-agBT8-82" target="yFcrXBDnqZHCQ9-agBT8-73">
          <mxGeometry relative="1" as="geometry" />
        </mxCell>
        <mxCell id="yFcrXBDnqZHCQ9-agBT8-82" value="" style="ellipse;whiteSpace=wrap;html=1;aspect=fixed;fillColor=none;" vertex="1" parent="1">
          <mxGeometry x="280" y="1110" width="20" height="20" as="geometry" />
        </mxCell>
        <mxCell id="yFcrXBDnqZHCQ9-agBT8-83" value="" style="endArrow=none;html=1;rounded=0;entryX=1;entryY=0;entryDx=0;entryDy=0;exitX=0;exitY=1;exitDx=0;exitDy=0;" edge="1" parent="1" source="yFcrXBDnqZHCQ9-agBT8-82" target="yFcrXBDnqZHCQ9-agBT8-82">
          <mxGeometry width="50" height="50" relative="1" as="geometry">
            <mxPoint x="270" y="1160" as="sourcePoint" />
            <mxPoint x="320" y="1110" as="targetPoint" />
          </mxGeometry>
        </mxCell>
        <mxCell id="yFcrXBDnqZHCQ9-agBT8-84" value="" style="endArrow=none;html=1;rounded=0;entryX=0;entryY=0;entryDx=0;entryDy=0;exitX=1;exitY=1;exitDx=0;exitDy=0;" edge="1" parent="1" source="yFcrXBDnqZHCQ9-agBT8-82" target="yFcrXBDnqZHCQ9-agBT8-82">
          <mxGeometry width="50" height="50" relative="1" as="geometry">
            <mxPoint x="270" y="1160" as="sourcePoint" />
            <mxPoint x="320" y="1110" as="targetPoint" />
          </mxGeometry>
        </mxCell>
        <mxCell id="yFcrXBDnqZHCQ9-agBT8-85" value="$$h[3]$$" style="text;html=1;align=center;verticalAlign=middle;whiteSpace=wrap;rounded=0;fontFamily=Helvetica;fontSize=11;fontColor=default;labelBackgroundColor=none;resizable=0;fillColor=none;" vertex="1" parent="1">
          <mxGeometry x="290" y="1105" width="60" height="30" as="geometry" />
        </mxCell>
        <mxCell id="yFcrXBDnqZHCQ9-agBT8-86" style="edgeStyle=orthogonalEdgeStyle;shape=connector;rounded=0;orthogonalLoop=1;jettySize=auto;html=1;entryX=0;entryY=0.5;entryDx=0;entryDy=0;strokeColor=default;align=center;verticalAlign=middle;fontFamily=Helvetica;fontSize=11;fontColor=default;labelBackgroundColor=default;resizable=0;endArrow=blockThin;endFill=1;" edge="1" parent="1" source="yFcrXBDnqZHCQ9-agBT8-89" target="yFcrXBDnqZHCQ9-agBT8-71">
          <mxGeometry relative="1" as="geometry" />
        </mxCell>
        <mxCell id="yFcrXBDnqZHCQ9-agBT8-87" style="edgeStyle=orthogonalEdgeStyle;shape=connector;rounded=0;orthogonalLoop=1;jettySize=auto;html=1;entryX=0.5;entryY=0;entryDx=0;entryDy=0;strokeColor=default;align=center;verticalAlign=middle;fontFamily=Helvetica;fontSize=11;fontColor=default;labelBackgroundColor=default;resizable=0;endArrow=blockThin;endFill=1;" edge="1" parent="1" source="yFcrXBDnqZHCQ9-agBT8-88" target="yFcrXBDnqZHCQ9-agBT8-82">
          <mxGeometry relative="1" as="geometry" />
        </mxCell>
        <mxCell id="yFcrXBDnqZHCQ9-agBT8-88" value="" style="shape=waypoint;sketch=0;fillStyle=solid;size=6;pointerEvents=1;points=[];fillColor=none;resizable=0;rotatable=0;perimeter=centerPerimeter;snapToPoint=1;strokeColor=default;strokeWidth=0;align=center;verticalAlign=middle;fontFamily=Helvetica;fontSize=11;fontColor=default;labelBackgroundColor=default;" vertex="1" parent="1">
          <mxGeometry x="280" y="1070" width="20" height="20" as="geometry" />
        </mxCell>
        <mxCell id="yFcrXBDnqZHCQ9-agBT8-89" value="" style="shape=waypoint;sketch=0;fillStyle=solid;size=6;pointerEvents=1;points=[];fillColor=none;resizable=0;rotatable=0;perimeter=centerPerimeter;snapToPoint=1;strokeColor=default;strokeWidth=0;align=center;verticalAlign=middle;fontFamily=Helvetica;fontSize=11;fontColor=default;labelBackgroundColor=default;" vertex="1" parent="1">
          <mxGeometry x="240" y="1070" width="20" height="20" as="geometry" />
        </mxCell>
        <mxCell id="yFcrXBDnqZHCQ9-agBT8-100" style="edgeStyle=orthogonalEdgeStyle;shape=connector;rounded=0;orthogonalLoop=1;jettySize=auto;html=1;exitX=1;exitY=0.5;exitDx=0;exitDy=0;strokeColor=default;align=center;verticalAlign=middle;fontFamily=Helvetica;fontSize=11;fontColor=default;labelBackgroundColor=default;resizable=0;endArrow=blockThin;endFill=1;" edge="1" parent="1" source="yFcrXBDnqZHCQ9-agBT8-91">
          <mxGeometry relative="1" as="geometry">
            <mxPoint x="580" y="980" as="targetPoint" />
          </mxGeometry>
        </mxCell>
        <mxCell id="yFcrXBDnqZHCQ9-agBT8-91" value="$$\sum$$" style="rounded=0;whiteSpace=wrap;html=1;sketch=0;fillStyle=solid;pointerEvents=1;strokeColor=default;strokeWidth=1;align=center;verticalAlign=middle;fontFamily=Helvetica;fontSize=11;fontColor=default;labelBackgroundColor=none;resizable=1;fillColor=none;movable=1;rotatable=1;deletable=1;editable=1;locked=0;connectable=1;" vertex="1" parent="1">
          <mxGeometry x="470" y="780" width="50" height="400" as="geometry" />
        </mxCell>
        <mxCell id="yFcrXBDnqZHCQ9-agBT8-96" value="" style="endArrow=blockThin;html=1;rounded=0;strokeColor=default;align=center;verticalAlign=middle;fontFamily=Helvetica;fontSize=11;fontColor=default;labelBackgroundColor=default;resizable=0;edgeStyle=orthogonalEdgeStyle;endFill=1;" edge="1" parent="1">
          <mxGeometry width="50" height="50" relative="1" as="geometry">
            <mxPoint x="419.49" y="800" as="sourcePoint" />
            <mxPoint x="470" y="800" as="targetPoint" />
          </mxGeometry>
        </mxCell>
        <mxCell id="yFcrXBDnqZHCQ9-agBT8-97" value="" style="endArrow=blockThin;html=1;rounded=0;strokeColor=default;align=center;verticalAlign=middle;fontFamily=Helvetica;fontSize=11;fontColor=default;labelBackgroundColor=default;resizable=0;edgeStyle=orthogonalEdgeStyle;endFill=1;" edge="1" parent="1">
          <mxGeometry width="50" height="50" relative="1" as="geometry">
            <mxPoint x="420" y="919.84" as="sourcePoint" />
            <mxPoint x="470.51" y="919.84" as="targetPoint" />
          </mxGeometry>
        </mxCell>
        <mxCell id="yFcrXBDnqZHCQ9-agBT8-98" value="" style="endArrow=blockThin;html=1;rounded=0;strokeColor=default;align=center;verticalAlign=middle;fontFamily=Helvetica;fontSize=11;fontColor=default;labelBackgroundColor=default;resizable=0;edgeStyle=orthogonalEdgeStyle;endFill=1;" edge="1" parent="1">
          <mxGeometry width="50" height="50" relative="1" as="geometry">
            <mxPoint x="420" y="1039.84" as="sourcePoint" />
            <mxPoint x="470.51" y="1039.84" as="targetPoint" />
          </mxGeometry>
        </mxCell>
        <mxCell id="yFcrXBDnqZHCQ9-agBT8-99" value="" style="endArrow=blockThin;html=1;rounded=0;strokeColor=default;align=center;verticalAlign=middle;fontFamily=Helvetica;fontSize=11;fontColor=default;labelBackgroundColor=default;resizable=0;edgeStyle=orthogonalEdgeStyle;endFill=1;" edge="1" parent="1">
          <mxGeometry width="50" height="50" relative="1" as="geometry">
            <mxPoint x="420" y="1159.84" as="sourcePoint" />
            <mxPoint x="470.51" y="1159.84" as="targetPoint" />
          </mxGeometry>
        </mxCell>
        <mxCell id="yFcrXBDnqZHCQ9-agBT8-104" style="shape=connector;rounded=0;orthogonalLoop=1;jettySize=auto;html=1;strokeColor=default;align=center;verticalAlign=middle;fontFamily=Helvetica;fontSize=11;fontColor=default;labelBackgroundColor=default;resizable=0;endArrow=blockThin;endFill=1;" edge="1" parent="1" source="yFcrXBDnqZHCQ9-agBT8-103" target="yFcrXBDnqZHCQ9-agBT8-89">
          <mxGeometry relative="1" as="geometry" />
        </mxCell>
        <mxCell id="yFcrXBDnqZHCQ9-agBT8-103" value="" style="shape=waypoint;sketch=0;fillStyle=solid;size=6;pointerEvents=1;points=[];fillColor=none;resizable=0;rotatable=0;perimeter=centerPerimeter;snapToPoint=1;strokeColor=default;strokeWidth=0;align=center;verticalAlign=middle;fontFamily=Helvetica;fontSize=11;fontColor=default;labelBackgroundColor=default;" vertex="1" parent="1">
          <mxGeometry x="170" y="890" width="20" height="20" as="geometry" />
        </mxCell>
        <mxCell id="yFcrXBDnqZHCQ9-agBT8-105" value="" style="endArrow=none;html=1;rounded=0;strokeColor=default;align=center;verticalAlign=middle;fontFamily=Helvetica;fontSize=11;fontColor=default;labelBackgroundColor=default;resizable=0;entryX=0.148;entryY=0.235;entryDx=0;entryDy=0;entryPerimeter=0;" edge="1" parent="1" target="yFcrXBDnqZHCQ9-agBT8-103">
          <mxGeometry width="50" height="50" relative="1" as="geometry">
            <mxPoint x="120" y="900" as="sourcePoint" />
            <mxPoint x="149.48000000000002" y="839.48" as="targetPoint" />
          </mxGeometry>
        </mxCell>
        <mxCell id="yFcrXBDnqZHCQ9-agBT8-106" value="" style="curved=1;endArrow=blockThin;html=1;rounded=0;strokeColor=default;align=center;verticalAlign=middle;fontFamily=Helvetica;fontSize=11;fontColor=default;labelBackgroundColor=default;resizable=0;edgeStyle=orthogonalEdgeStyle;endFill=1;dashed=1;" edge="1" parent="1">
          <mxGeometry width="50" height="50" relative="1" as="geometry">
            <mxPoint x="180" y="950" as="sourcePoint" />
            <mxPoint x="230" y="850" as="targetPoint" />
            <Array as="points">
              <mxPoint x="230" y="950" />
            </Array>
          </mxGeometry>
        </mxCell>
        <mxCell id="yFcrXBDnqZHCQ9-agBT8-110" value="$$ \text{Rate } R$$" style="text;html=1;align=center;verticalAlign=middle;whiteSpace=wrap;rounded=0;fontFamily=Helvetica;fontSize=11;fontColor=default;labelBackgroundColor=none;resizable=1;movable=1;rotatable=1;deletable=1;editable=1;locked=0;connectable=1;" vertex="1" parent="1">
          <mxGeometry x="530" y="950" width="70" height="20" as="geometry" />
        </mxCell>
        <mxCell id="yFcrXBDnqZHCQ9-agBT8-111" value="$$ \text{Rate } 4R$$" style="text;html=1;align=center;verticalAlign=middle;whiteSpace=wrap;rounded=0;fontFamily=Helvetica;fontSize=11;fontColor=default;labelBackgroundColor=none;resizable=1;movable=1;rotatable=1;deletable=1;editable=1;locked=0;connectable=1;" vertex="1" parent="1">
          <mxGeometry x="130" y="870" width="70" height="20" as="geometry" />
        </mxCell>
      </root>
    </mxGraphModel>
  </diagram>
</mxfile>
